<?xml version="1.0" standalone="no"?>
<svg id="wrapper" viewBox="0 0 976.93 756.43" preserveAspectRatio="xMinYMin" height="756.43" width="976.93" style="background-color: rgb(255, 255, 255);"><metadata>
    <rdf:rdf xmlns:rdf="http://www.w3.org/1999/02/22-rdf-syntax-ns#" xmlns:cc="http://creativecommons.org/ns#" xmlns:dc="http://purl.org/dc/elements/1.1/">
      <cc:work rdf:about="">
        <dc:format>image/svg+xml</dc:format>
        <dc:type rdf:resource="http://purl.org/dc/dcmitype/StillImage"></dc:type>
        <dc:title>MapChart Map</dc:title>
        <dc:creator>
          <cc:agent>
            <dc:title>MapChart.net</dc:title>
          </cc:agent>
        </dc:creator>
        <cc:license rdf:resource="http://creativecommons.org/licenses/by-sa/4.0/"></cc:license>
        <dc:description>This map was created with MapChart.net, a website for creating custom maps.</dc:description>
      </cc:work>
      <cc:license rdf:about="http://creativecommons.org/licenses/by-sa/4.0/">
        <cc:permits rdf:resource="http://creativecommons.org/ns#Reproduction"></cc:permits>
        <cc:permits rdf:resource="http://creativecommons.org/ns#Distribution"></cc:permits>
        <cc:requires rdf:resource="http://creativecommons.org/ns#Notice"></cc:requires>
        <cc:requires rdf:resource="http://creativecommons.org/ns#Attribution"></cc:requires>
        <cc:requires rdf:resource="http://creativecommons.org/ns#ShareAlike"></cc:requires>
      </cc:license>
    </rdf:rdf>
  </metadata><rect id="svg-background" x="0" y="0" width="976.93" height="756.43" fill="#ffffff"></rect><g id="map-group" style="" transform="matrix(2.381769895553589 0 0 2.381769895553589 -113.33621408052412 -764.692264589247)"><svg xmlns="http://www.w3.org/2000/svg" id="map" width="976.93" height="756.43" version="1" viewBox="0 0 976.93 756.43" preserveAspectRatio="xMinYMin" data-originalStrokeWidth=".25"><defs><pattern id="circles3" width="10" height="10" patternUnits="userSpaceOnUse">    <rect width="10" height="10" fill="#fff"></rect>    <circle cx="4" cy="4" r="2" fill="#000"></circle>    </pattern><pattern id="diagonal1" width="10" height="10" patternUnits="userSpaceOnUse">    <rect width="10" height="10" fill="#fff"></rect>    <path id="pattern0" d="M-1,1 l2,-2 M0,10 l10,-10 M9,11 l2,-2" stroke="#000" stroke-width="1"></path>    </pattern><pattern id="diagonal3" width="10" height="10" patternUnits="userSpaceOnUse">    <rect width="10" height="10" fill="#fff"></rect>    <path id="pattern1" d="M-1,1 l2,-2 M0,10 l10,-10 M9,11 l2,-2" stroke="#000" stroke-width="3"></path>    </pattern><pattern id="vertical1" width="10" height="10" patternUnits="userSpaceOnUse">    <rect width="10" height="10" fill="#fff"></rect>    <rect x="2" y="0" width="1" height="10" fill="#000"></rect>    </pattern><pattern id="vertical3" width="10" height="10" patternUnits="userSpaceOnUse">    <rect width="10" height="10" fill="#fff"></rect>    <rect x="2" y="0" width="3" height="10" fill="#000"></rect>    </pattern><pattern id="horizontal1" width="10" height="10" patternUnits="userSpaceOnUse">    <rect width="10" height="10" fill="#fff"></rect>    <rect x="0" y="2" width="10" height="1" fill="#000"></rect>    </pattern><pattern id="horizontal3" width="10" height="10" patternUnits="userSpaceOnUse">    <rect width="10" height="10" fill="#fff"></rect>    <rect x="0" y="2" width="10" height="3" fill="#000"></rect>    </pattern><pattern id="crosshatch" width="8" height="8" patternUnits="userSpaceOnUse">    <rect width="8" height="8" fill="#fff"></rect>    <path id="pattern2" d="M0 0L8 8ZM8 0L0 8Z" stroke-width="0.5" stroke="#aaa"></path>    </pattern><pattern id="subtlepatch" width="5" height="5" patternUnits="userSpaceOnUse">    <rect width="5" height="5" fill="#fff"></rect>    <rect x="2" y="2" width="1" height="1" fill="#000"></rect>    </pattern><pattern id="checkers" width="8" height="8" patternUnits="userSpaceOnUse">    <rect width="8" height="8" fill="#fff"></rect>    <path id="pattern3" fill="#000" fill-rule="evenodd" d="M0 0h4v4H0V0zm4 4h4v4H4V4z"></path>    </pattern><pattern id="raindrops" width="10" height="10" patternUnits="userSpaceOnUse">    <rect width="10" height="10" fill="#fff"></rect>    <path id="pattern4" fill="#000" d="M0 38.59l2.83-2.83 1.41 1.41L1.41 40H0v-1.41zM0 1.4l2.83 2.83 1.41-1.41L1.41 0H0v1.41zM38.59 40l-2.83-2.83 1.41-1.41L40 38.59V40h-1.41zM40 1.41l-2.83 2.83-1.41-1.41L38.59 0H40v1.41zM20 18.6l2.83-2.83 1.41 1.41L21.41 20l2.83 2.83-1.41 1.41L20 21.41l-2.83 2.83-1.41-1.41L18.59 20l-2.83-2.83 1.41-1.41L20 18.59z"></path>    </pattern><pattern id="texture" width="4" height="4" patternUnits="userSpaceOnUse">    <rect width="4" height="4" fill="#fff"></rect>    <path id="pattern5" fill="#000" d="M1 3h1v1H1V3zm2-2h1v1H3V1z"></path>    </pattern><pattern id="circles3_a03500_000000" width="10" height="10" patternUnits="userSpaceOnUse">    <rect width="10" height="10" fill="#a03500"></rect>    <circle cx="4" cy="4" r="2" fill="#000000"></circle>    </pattern><pattern id="diagonal1_d9b400_535353" width="10" height="10" patternUnits="userSpaceOnUse">    <rect width="10" height="10" fill="#d9b400"></rect>    <path id="pattern0" d="M-1,1 l2,-2 M0,10 l10,-10 M9,11 l2,-2" stroke="#535353" stroke-width="1"></path>    </pattern><pattern id="diagonal3_3264c8_ffffff" width="10" height="10" patternUnits="userSpaceOnUse">    <rect width="10" height="10" fill="#3264c8"></rect>    <path id="pattern1" d="M-1,1 l2,-2 M0,10 l10,-10 M9,11 l2,-2" stroke="#ffffff" stroke-width="3"></path>    </pattern><pattern id="horizontal1_72b38e_000000" width="10" height="10" patternUnits="userSpaceOnUse">    <rect width="10" height="10" fill="#72b38e"></rect>    <rect x="0" y="2" width="10" height="1" fill="#000000"></rect>    </pattern><pattern id="horizontal3_986ba1_ffffff" width="10" height="10" patternUnits="userSpaceOnUse">    <rect width="10" height="10" fill="#986ba1"></rect>    <rect x="0" y="2" width="10" height="3" fill="#ffffff"></rect>    </pattern><pattern id="vertical1_b9a087_ffffff" width="10" height="10" patternUnits="userSpaceOnUse">    <rect width="10" height="10" fill="#b9a087"></rect>    <rect x="2" y="0" width="1" height="10" fill="#ffffff"></rect>    </pattern><pattern id="vertical3_4c91bf_ffff33" width="10" height="10" patternUnits="userSpaceOnUse">    <rect width="10" height="10" fill="#4c91bf"></rect>    <rect x="2" y="0" width="3" height="10" fill="#ffff33"></rect>    </pattern><pattern id="checkers_cc3333_f7f7f7" width="8" height="8" patternUnits="userSpaceOnUse">    <rect width="8" height="8" fill="#cc3333"></rect>    <path id="pattern3" fill="#f7f7f7" fill-rule="evenodd" d="M0 0h4v4H0V0zm4 4h4v4H4V4z"></path>    </pattern><pattern id="texture_d1dbdd_525252" width="4" height="4" patternUnits="userSpaceOnUse">    <rect width="4" height="4" fill="#d1dbdd"></rect>    <path id="pattern5" fill="#525252" d="M1 3h1v1H1V3zm2-2h1v1H3V1z"></path>    </pattern></defs><path id="PT30" fill="#d1dbdd" fill-rule="evenodd" stroke="#000" stroke-width="0.1049640112280169" d="M118.71 677.52c-.28.23-.65.35-.88.52-.33.36-.7.31-.65.78-.06.37-.3.79-.58.86.12.14.1.38.35.3.3.5.85-.54 1.21-.72.26-.51 1.16-.14 1.24-.29.17-.43-.16-.62.07-1-.07-.25-.66-.06-.76-.45zm.95 1.61-.11.02c.4.37.34.01.11-.02zm-3.42.47c-.08.41.48.07 0 0zm.71.73.02.05q0-.03-.02-.05zm.02.05c-.02.04-.1.1-.1.14-.4.3.05.34.15.54-.02-.02.01-.56-.05-.68zm-22.9 6.36q-.46-.02-.79.52c-.3.53-1.44.84-1.13 1.43.36.87.67 1.76 1.35 2.44.67.44 1.46.72 2.08 1.26.4.3.64.68 1.15.53.98.42 1.89 1.06 3 1.1.26.01.78.68 1.02.39.2.02.47-.15.68-.28.37-.15.83 0 1.2.07.34.22.84.18 1.12.02l.7-.62a.9.9 0 0 1 .83-.9c.03-.27.15-.4.35-.54-.24-.37.17-.3.27-.62.18-.48.92-.46 1.45-.43.02-.66.55.5.5-.03-.28-.35-.25-.33-.69-.24-.2.08-.54-.02-.77.01-.35-.43-1.06-.2-1.42-.45-.2-.2-1 .01-1.1-.49-.29-.36-.74-.46-.85-.87-.07-.18-1.02-1.29-1.66-1.04-.64.09-1.3.34-1.94.1-.44.48-1.1.53-1.69.65-.44-.2-1-.17-1.37-.43-.12-.3-.81-.08-1-.65-.25-.52-.78-.94-1.28-.93zm13.93 4.52q-.1-.04-.04.09l.03.02c.6.31.18-.06 0-.11zm.53.2c-.03-.03-.3.12-.08.11q.1-.1.08-.1zm3.01 5.87v.07c.14.6.28.06 0-.07zm.2.56c0 .33.17.63.1.99.1.22.66.39.64.8.18.42.4.85.48 1.27.25.06.05-.7-.05-.87-.04-.51-.45-.88-.58-1.31-.18-.32-.36-.67-.6-.88zm1.3 3.53c-.22.57.03 1.11.25 1.65.42.47.54.15.09-.16-.35-.4-.22-1-.35-1.49zm13.14 6.1c-.06.09-.18.13-.18.24-.03.88.93-.05.18-.23zm-4.62 3.85c-.04.05.09.03.03.08.24.11.23-.14-.03-.08zm-.59.1c.15.1.08.05 0 0z" clip-rule="evenodd" image-rendering="optimizeQuality" shape-rendering="geometricPrecision" text-rendering="geometricPrecision" data-originalStrokeWidth="0.1049640112280169" pointer-events="auto" style="stroke: rgb(0, 0, 0); fill: rgb(209, 219, 221); pointer-events: auto; stroke-width: 0.104964;"></path><path id="PT20" fill="#d1dbdd" fill-rule="evenodd" stroke="#000" stroke-width="0.1049640112280169" d="M141.67 681.77c-.16 0-.32.13-.31.4-.23.25.26.3.11.58 0 .45.8-.26.55-.61 0-.25-.18-.38-.35-.37zm12.9 2.95c-.2-.01-.4.1-.5.32-.09.24.24.74.51.75l.54.26c.5.22.58-.06.35-.45.2-.37-.24-.3-.51-.7a1 1 0 0 0-.39-.18zm-14.63 1.18c-.5-.05-.29.55-.71.65.16.46-.27.77-.03 1.09-.1.36.17.73.07 1.04 0 .5.6.31.96.4.42 0 .65-.18.78-.59.04-.43.28-.5.27-.9.04-.07.18-.07.15-.17a10 10 0 0 1-.57-1.04c-.55.27-.63-.41-.92-.48zm24.87 2.05q-.36-.01-.7.1c-.5.01-.96.43-.85.96-.03.64.55.89 1.03 1.15.28.18.78.08 1.08.22.4-.16.8.03 1.22.05.66.2.7-.3 1.06-.68.09-.33-.23-.57-.04-.8-.2-.4-.47-.71-.97-.71-.53-.17-1.06-.19-1.58-.26zm-13.92 1.28c.14.33.48.57.78.79.45.04.43.55.83.66.42.17.78.47 1.22.6.55.05.87.6 1.43.61.67 0 1.1.55 1.68.75.4.4 1.1.44 1.6.18-.2-.46-.83-.55-1.24-.82-.35-.25-.85-.28-1.1-.61-.45-.12-.77-.42-1.15-.64q-.67-.21-1.32-.44c-.6-.37-1.33-.48-1.9-.81-.21-.19-.57-.24-.83-.27zm-5.27 1.85a.6.6 0 0 0-.63.4c-.18.16-.54.04-.79.1-.63.01-.33.41.04.6.42.12.68.34.55.8.3.3.78.06 1.17.14.38-.1.74.15.74-.33.29-.12.05-.55.23-.8-.04-.44-.63-.4-.86-.74a1 1 0 0 0-.45-.17zm3.27 1.32c-.53-.06-1.1.34-1.13.88-.16.38.3.67.38.96.15.07.42.17.52.29.35.29.73.07 1.07.23.56.2 1.15.15 1.75.18.16.5.73.47 1.07.16.26-.25.8-.06 1.14-.01.3.1.83 0 1.04-.19-.05-.33-.48-.52-.79-.53a9 9 0 0 0-1.14-.23c-.34-.17-.57-.4-.86-.64-.44-.01-.88-.16-1.1-.57-.54-.27-1.08-.65-1.73-.47zm13.5 4.5c-.22 0-.45.1-.64.22-.33.28-.5.72-.07 1.04.22.32.56.37.82.64.28.27.53.43.8.63.47.26.9-.38 1.37-.11.5-.05.66.49 1.13.47.43-.13.92-.04 1.4-.1.32.13.56-.24.91-.15.37-.06.65-.43 1.09-.28.3.22.87.01 1.04-.29.06-.27.11-.74.03-1.07 0-.4-.53-.41-.84-.36-.45.08-.91-.07-1.37-.04-.34.22-.82.37-1.16.5-.42.07-.74.06-1.1-.17-.32.35-.78.39-1.23.35-.29-.26-.73-.07-1.02-.3-.32-.32-.35-.7-.8-.83a.6.6 0 0 0-.37-.15zm5.31 7.32c-.3.01-.55.1-.84.07-.36.27-.1.73.18.92.28.07.67-.37.86.02.27.27 1.11.13.69-.38-.45-.14-.22-.65-.58-.62a1 1 0 0 0-.31-.01z" clip-rule="evenodd" image-rendering="optimizeQuality" shape-rendering="geometricPrecision" text-rendering="geometricPrecision" data-originalStrokeWidth="0.1049640112280169" pointer-events="auto" style="stroke: rgb(0, 0, 0); fill: rgb(209, 219, 221); pointer-events: auto; stroke-width: 0.104964;"></path><path id="ES70" fill="#d1dbdd" stroke="#000" stroke-width="0.1049640112280169" d="M97.59 751.12v.02l-.1.04-.04.1-.08.04-.22.01-.25.24-.07.05-.36.06.08.2v.04l-.03.16-.13.16-.03.03-.46.41-.17.16-.24.1-.6.08-.12-.01-.5-.15-.05-.06-.07-.08v-.01l-.08-.03-.15.03-.14.07-.22.23-.02.14.05.25-.08.25v.15l.05.06.13.1.58.17.09.02.35.05.45.05.34-.03.14.04.23.2.32.55.1.1.1.09.13.07.03.01.12.04.1-.02.15-.17.05-.14.07-.4-.01-.11-.01-.07.17-.4V754l.12-.13.36-.19.05-.07.03-.15-.03-.14-.01-.05.13-.3.09-.08.02-.25.15-.13.23-.21.11-.2.01-.17v-.08l-.03-.17-.02-.08-.1-.19-.23-.13-.01-.02-.09-.05-.09-.07-.3-.02zm11.79-7.02-.17.09-.22.15-.09.02-.11-.02-.13.08h-.18l-.06.06-.03.16-.17.26-.1.31-.03.26-.03.22-.07.27v.24l.05.21.08.19.2.14.06.1-.02.23.18.07.1.1.1.06.16.21.15.06.17.2.05.07h.15l.33.12.36-.1h.46l.14-.02.1-.2.06-.05h.21l.1-.14.12-.03.05-.1v-.02l.17-.05.04-.05-.03-.09.02-.05.07-.02.09-.13.23.01.06-.07.08-.18.12-.14.01-.01.01-.21.03-.13-.06-.14.01-.2-.1-.12-.04-.16-.07-.06-.05-.12-.06-.05-.21-.02-.3-.26-.13-.03-.07-.14h-.11l-.12-.07-.14-.11-.14-.18-.31-.16-.6-.02-.07-.06-.2-.14-.1-.02v-.01zm19.14-7.44-.04.06-.01.03-.09.06v.01l-.21.06-.26.16-.22.09-.35.05-.25-.11-.36.01-.1-.1h-.03l-.04-.02-.02.02-.06.04-.15.02-.11.05-.03.01-.53-.1-.1.1-.04.18-.07.08-.16.03-.15.16-.58.11-.15.08-.26.24-.13.14-.06.44-.06.1-.15.1-.12.18-.14.05-.04.19-.27.18-.06.2-.04.03-.12.06-.2.02-.05.06-.13.23-.15.1-.52.01-.46.2-.25.2-.08.02-.2.03-.26.07h-.22l-.69-.12-.1.01-.04.07-.17.04-.12.02-.1.1-.09.05-.28.03-.09.11-.08.01-.08-.05-.1.02-.04.02-.16.1-.36.03-.8-.1-.15-.14-.04-.05-.08-.04-.3.1-.11.03-.15.15-.16.03-.42.2-.24.03-.13.1-.03.13.03.12.08.08.07.04.14.1.14.14.23.35.1.28.17.11.06.08.01.2.19.08.02.17.14.17.01.08-.06.23.03.13.14.49.4.53.1.17.16.53.08.13.19.2.55.61.18.18.06.1.02.22-.03.2.06.1.06.02h.17l.1.07.11.2.06.36-.04.19.07.15.12.07.1.01h.03l.16-.01.3-.16.11.02.19.08.11-.02.12-.19.08-.07.5-.19.09-.03.15-.05.32.01.32.07.04-.04.02-.2v-.02l.17-.04.07-.1.11-.07.08-.16.2-.1.04-.18.15-.09.1-.11.24-.26.32-.51.22-.25.15-.1.15-.05.03-.06-.09-.13v-.07l.03-.09.07-.05-.02-.2.04-.2.03-.25.02-.1.22-.43.22-.53.14-.34.3-.55.07-.06.1-.06.02-.21v-.03l-.16-.65.02-.19.09-.17v-.02l.26-.44.15-.14.44-.18.1-.05.04-.03.15-.16.16-.24.21-.18.1-.09.2-.2.15-.1.11-.15.05-.19.3-.31.17-.05.12-.12.2-.02.21-.1.24-.18.16-.11.16-.06h.06l.13.02.06-.04.03-.11.1-.1.08-.36v-.22l-.13-.16-.06-.19-.06-.03-.24-.09-.05-.07zm-30.56-5.26-.07.03v.01l-.12.21-.65.32-.05.05-.09.19-.13.03-.02.01h-.01l-.02.03-.02.02.02.17-.04.1-.16.18-.14.27-.06.2.12.35.24.2.06.1.01.16.2.37.1.19.05.2-.01.02-.01.24.03.15.09.14.1.1.1.09.12.15.17.28.07.18.05.2-.01.14-.01.1.15.14.18.3.12.14.1.1.09.14.07.47.02.1.06.17-.01.1-.03.18.07.14-.04.14.24.4.35.28h.12l.28-.54.23-.35.22-.28.26-.62.21-.27.1-.16.14-.68.02-.3.05-.16-.07-.17-.02-.24-.13-.4-.08-.26.03-.09.13-.17.1-.35.13-.13.2-.16.13-.45-.02-.07-.14-.07-.06-.08-.07-.07-.1-.2-.08-.12.02-.08-.08-.14-.08-.04-.03-.09-.07-.52-.12-.12-.15-.27-.03-.04-.04-.03-.1-.06-.3-.02-.08.14-.02.03-.18.04-.08.02-.15.01-.5-.06-.38-.06-.17-.08-.1-.21-.17.04-.03-.02-.03-.02zm43.3 13.36-.08.02-.15.2-.17.05-.04.07.04.07.17.1.02.06.01.03-.03.11-.4.24-.18.02-.19-.07-.48-.26-.1-.01-.14-.03-.13-.1h-.07l-.12.1-.3.02-.23.02-.08.02h-.53l-.3-.11-.13-.14-.07-.18-.15-.04-.32.14-.1-.01-.08.08h-.07l-.1-.07-.08-.1-.1.02-.03.02-.16.09-.1-.03-.08.03.24.25v.02l-.03.12.04.16-.07.15-.05.29-.09.1-.02.1.02.25-.03.16-.1.16-.12.1-.09.07-.14.24-.2.08-.27.07-.04.05-.07.27-.04.07-.07.05-.25.1-.4-.03-.09.09v.28l-.01.29-.1.53.04.2.02.31-.02.13-.04.04-.05.06-.01.04.05.14.27.32.08.34.1.06.04.06.05.33.07.16.15.21.37.3.65.5.08.11.08.04h.08l.1.05.11.26.2.13.13.2.08.03.09-.02.14-.05.14.01.65.2.12.06.19.14.1.03.13-.02.12-.07.12-.15.08-.27.05-.04.18-.07h.02l.55-.3h.2l.18-.12.44-.16.14-.02.29.01.3-.26.08-.09.06-.13.1-.35.06-.14.18-.11.1-.1.14-.05.1-.05-.03-.08.07-.19-.01-.07-.04-.08-.11-.05-.05-.12.05-.3.1-.29.06-.18.14-.06.15.02.06-.04.05-.04-.05-.03-.13-.02-.08-.09-.14-.44.05-.22.1-.2.02-.04.03-.18-.06-.26-.07-.1H142l-.02-.03-.17-.15-.4-.31-.1-.14-.01-.09.03-.11.02-.38.08-.26.02-.17-.04-.16-.04-.06-.1-.06-.1-.1v-.02l-.02-.08.02-.23.06-.1.3-.34.06-.1v-.15l-.15-.15h-.19zm26.69-11.5-.1.11-.03.03-.13.05-.1-.02-.06.1-.13-.12h-.06l-.06.02-.12.16-.05-.02v-.1l-.07-.01-.27.23-.12.04-.03.02h-.14l-.12.16-.2.05-.08-.02-.04.11-.1.07v.02l-.03.03-.1-.02-.03.03.01.1-.02.03-.01.02.02.21h.05l.02.07.07.35-.06.24-.18.3-.01.08-.12.18-.1.3.06.3v.17l-.37.57-.07.15-.1.1-.01.11-.02.1-.08.08-.07.22-.27.54-.03.15-.09.15-.12.28-.25.18-.37.34-.21.2-.05.13.05.14-.08.14-.01.27-.1.26-.02.09.03.14-.04.18-.14.15-.1.3-.22.17-.21.18-.1.3-.01.23-.06.18.07.29-.04.22v.17l-.06.42-.13.32h-.02l-.78.8-.42.26-.2.23-.27.18-.22.11-.5.26-.18.12-1.13.36h-.2l-.15-.07-.14.03-.03.01-.1-.05-.15.08-.06-.03-.04-.12-.07-.02-.06.1-.05.03v.07l.08.07.02.06-.09.19-.2.22-.02.09.02.04.08-.01.16-.17.25-.08.25.05.48.08.46.23.34.02.1.06.08.01.24-.02.15.13.48.08h.04l.11-.07.38-.46.54-.58.1-.16.18-.08.1-.1.18-.38.07-.12.28-.42.3-.17.22.02.23-.02.32-.07.1-.06.14-.03.4-.2.09.06.06.02.19-.12.34-.05.08-.07.42-.05h.02l.16-.04.12-.07.13.03.13-.06.1.01.05-.01.14-.12.43-.2h.2l.24.03.1-.05.36-.33v-.02l.2-.35.07-.2.12-.03.09-.18-.08-.22.03-.15.12-.16.05-.17.1-.1.1-.24.02-.09.02-.12.02-.17.03-.13.03-.05.25-.5.09.04.02-.15.04-.06-.04-.08.07-.15-.07-.13.04-.11-.04-.07-.05-.04-.08-.04-.01-.1.04-.15v-.16l.03-.12-.02-.15-.15-.3.1-.25.15-.1.1-.08.08-.12.12-.44.02-.05v-.2l.14-.23-.02-.04-.03-.07.01-.2-.02-.15.08-.16v-.15l-.06-.23.06-.27-.06-.25-.1-.84.03-.12v-.03l-.01-.12.03-.16-.15-.3.01-.13-.07-.18-.09-.05h-.13l-.06-.09-.1.03-.05-.15.06-.12-.03-.06-.05-.02-.07.04-.07-.02-.2-.19-.1-.02zm6.66-13.06-.05.02-.09.12-.13.03-.07.07-.06.17-.01.2.05.12.09.02h.1l.13-.09h.07l.05.05.04-.02.07-.17.11-.05.09-.23-.04-.07zm-.47 2.16-.09.15.03.12-.01.07.02.05.12-.02.03-.04.06-.17-.07-.15zm.49.4-.06.01-.06.07-.08.25-.1.12-.03.08.04.08-.09.2.01.12-.1.1-.23.16-.04.1.07.1.14-.02.07.09.12-.06.13-.02.11-.11.17.01.06-.07.04-.13.07-.07.15-.38.22-.2-.03-.1-.2-.17h-.19zm.62.93-.07.15-.36.33-.02.15-.13.14-.03.16-.09.05-.04.3-.06.08-.1.06v.22l-.01.03-.07.2-.02.2-.22.28-.14.08-.18.03-.07-.03-.11-.12-.33-.24h-.17l-.14.05-.12.15-.14.03-.07.07-.03.05-.13.02-.14-.14-.06.02-.03.02-.05.2-.26.06-.13.06-.1.08-.02.08-.09.1-.2.05-.12.2h-.12l-.09-.07h-.12l-.26.14-.01.02-.2-.04-.08.05-.13.18-.12-.01-.12.08-.05.1-.18.09-.16.26-.25.18-.25.43-.05.28v.06l-.06.05.1.23-.06.16.02.16-.03.4.04.22-.04.13-.06.05-.05.1-.12.06-.06.12-.1.04-.04.16-.06.06-.14.01-.07.03-.12.12.01.07.06.12.04.09.02.26.03.06.13-.04h.32l.12.05.1-.1.08-.02.14.02.15.11.22-.02.1.04.04.08.03.15.03.13.06.02.02-.11.11-.1.03-.14.05-.06.3-.22.1-.05.09-.46.17-.21.14-.03.1-.1.11-.05.19-.04.3-.09.44.05.25-.05.14-.11.08-.03.15-.02.1-.08.11-.02.13-.18.14-.12.3-.1.1-.01.27-.04h.07l.08.07.09-.02v-.15l.09-.15.11-.08.12-.04.1.01.2-.2.4-.17-.07-.1.03-.05.06-.02.09-.09.07-.16h.02l.1-.03.04-.07-.06-.3v-.1l.08-.11v-.3l.1-.14.15-.58-.03-.12-.06-.02-.03-.15-.08-.07-.03-.1V726l.02-.05.05-.15.04-.06.1-.13h.05l.28-.14.06-.1v-.1h.08l-.02-.18-.01-.07.1-.21-.03-.14.02-.14-.07-.15-.1-.04-.08-.06-.09-.23-.31-.01h-.02l-.1-.03-.05-.1-.03-.19z" data-originalStrokeWidth="0.1049640112280169" style="stroke: rgb(0, 0, 0); stroke-width: 0.104964;"></path><path id="sidemap" fill-rule="evenodd" stroke="#000000" stroke-width=".25" d="M80.5 714.77h103.46m.89 40.36-1.1-89.39-104.36-.2L0 665.37m80.8 91.06V572.98H.01" color="#000" overflow="visible" style="fill: none; stroke: rgb(0, 0, 0);"></path><path id="ES64" fill="#d1dbdd" stroke="#000" stroke-miterlimit="4.13" stroke-width="0.1049640112280169" d="M339.3 705.6a.77.77 0 0 1-.78.76.77.77 0 0 1-.77-.77.77.77 0 0 1 .77-.77.77.77 0 0 1 .77.77Z" color="#000" overflow="visible" paint-order="stroke fill markers" data-originalStrokeWidth="0.1049640112280169" style="stroke: rgb(0, 0, 0); stroke-width: 0.104964;"></path><path id="Gibraltar" fill="#d1dbdd" stroke="#000" stroke-miterlimit="4.13" stroke-width="0.1049640112280169" d="M303.83 682.39a.77.77 0 0 1-.77.77.77.77 0 0 1-.77-.77.77.77 0 0 1 .77-.77.77.77 0 0 1 .77.77Z" color="#000" overflow="visible" paint-order="stroke fill markers" data-originalStrokeWidth="0.1049640112280169" pointer-events="auto" style="stroke: rgb(0, 0, 0); fill: rgb(209, 219, 221); pointer-events: auto; stroke-width: 0.104964; filter: none;"></path><path id="ES53" fill="#d1dbdd" fill-rule="evenodd" stroke="#000" stroke-width="0.1049640112280169" d="m458.19 627.21.25.2.31-.14-.2.5h.29l.03-.59h.22l.17.23-.11.4.31.25.09-.14.28.48.2.2h.37l.2.42-.1.28.32.37-.06.26.15.4.25.4.09.25-.15.25.03.37-.11.28-.26.34-.22.11-.54-.17-.23-.22h-.2l-.73-.62-.37-.29-.45-.25-.31-.37-.83-.57-1.07-.3-.51.02-.26.11-.68-.03-.48-.17.12-.45.14-.17-.03-.62-.48-.14-.06-.37.29-.14.22-.46.96-.08.34.2.43-.2.37.06.34.17.17-.09h.36l.2-.08.29.22Zm-13.96.96.54.03-.17.17-.29.09-.42.25-.34-.08-.37.28h-.37l-.14.31.09.42.28.29.37-.17.25.03.6-.29-.03.31.17.17-.29.34-.53.12-.26-.14-.2.45.09.42.25.43.49.4.36.2.48.33.23.06.51-.14.37-.23.31-.11.17-.43.17-.08.42.45.37.11.46.4.4.14-.18.31.31.06.03.17-.28.11-.11.57.02.34-.25.03-.09.4-.48-.06-.2.25-.14.4v.23l-.22.56-.6.34-.68.71-.34.8-.11.53-.34.51-.17.43-.28.33-.6.15-.05.22-.34.2-.32-.03-.14.17-.3.09-.83.79h-.28l-.12-.28-.25-.23-.06-.28-.22-.26-.23-.03.08-.36-.1-.23-.35-.31-.4-.09-.3.17-.43-.28-.57-.06-.28.17-.31-.22-.29.03-.22-.43-.29-.23-.14-.34.17-.5-.05-.26-.26-.51.48-.51-.08-.23-.34-.4h-.14l-.34-.42-.65-.34h-.17l-.15.4-.25-.14-.31.3h-.4l-.34.15-.14.68-.23.26-.05.28-.57-.28-.03-.43-.22-.2.14-.37-.29-.3-.4.16-.79-.34v-.3l-.25-.24.11-.22-.11-.26.2-.3.2-.12h.25l.57-.26.03-.14.62-.25.6-.54.47-.28.43.05.5-.28.24-.28.36-.29.2-.28.14.06.29-.17.14-.37.34-.06.14-.22.68-.4.11.08.4-.2.08-.28.4-.08.34.11.25-.06.2-.22.29-.06.36-.28h.32l.28-.14.25-.23.49.23.3-.26.43-.17.43.06.05.23.94-.15.5-.4Zm-4.67 14.95.34.2-.49.57-.42-.31.31-.34Zm-21.52-1.24-.06.14.26.31.17-.06.36.09.14.11-.17.28-.05.37.37.48-.54.32-.17.45-.37-.06-.34.14-.17.68-.23-.03-.14.23-.5.31-.55-.05-.45.42-.14.26-.08.82-.23-.17-.26.11-.05-.37-.29-.37-.34.12-.36-.31-.37-.09-.34.34-.4-.34v-.28l-.11-.23.14-.4.26-.3-.26-.43.26-.26.22.15.57-.06.28.08.09-.14-.29-.45.2-.17-.03-.4.57-.4h.23l.3-.36.1.22.22-.02.28-.23.28.06.17-.26.2.23.2-.26.37-.11.34.14.17-.25ZM416 649.3l.2.05.11.43.45.48.26.14.42-.26h.17l.17.26v.31l-.28.2-.62-.14-.46-.46-.3-.2h-.49l-.17.23-.42.34-.29.09v-.9l.14-.2-.05-.4.22-.23.29.2.4-.51.1.4Z" data-originalStrokeWidth="0.1049640112280169" style="stroke: rgb(0, 0, 0); stroke-width: 0.104964;"></path><path id="ES61" fill="#d1dbdd" stroke="#000" stroke-width="0.1049640112280169" d="m327.77 643.38-.06-.6.26-.37.65.15.93.48.2-.06.26.2h.28l.34.17h.28l.6.2.3.2.63.14.8.08.62-.03.28.09.42-.28.06-.37.37-.12.65.09.37.25.2-.14.4.29.7.28.43.28.36-.03.23-.11.17-.82h.23l.37.2.1.25v.48l.63.23.2.14.74-.05.25-.26.57-.23-.03-.22.17-.46h.76l.31.12.34.42.88.31.6.15.42.28.28.08.2-.14.9-.45.72 1.33.25-.17.03-.4.31-.11.23-.25h.4l.48.16.2.32h.16l.48-.34.43-.09.54-.22.56-.49.32.26.14.23.42.3.37.12.48-.11.6-.03.2.11.3.43-.16.2.08.4-.25.61.05.23.26.26h.25l.37.17.4.14-.17.48.11.48-.23.88.06.11.51.26.08.42-.14.25-.03.37-.22.26.08.28-.08.37-.37.17-.14.31-.43.4-.22.08-.2.34-.51.37.14.2.51.22.31.32.71.34.17.22.37.12.34.2.48.02.6.57v.28l.2.54.25.28.2.37.5.4.29.28.2.34.34-.09h.4l.33.49.68.05.48.31.46-.14.28.26-.4.45-.11.51-.26.74.03.93-.2.23-.1.28-.07.51.2.62.12.03.08.48.26.43.02.25 1 2.07.17.23.14.5.5.52v-.37l1.14.37.42.48.57.48.48.56-.23.06-.2.28-.3-.05-.32.34-.36.56-.2.14-.51.46-.17.08-.31.4-.37.14-.11.14-.46.94-.05.36-.26.6-.2.2-.11.28-.06.45-.28.4-.23.17-.08.4-.4.45-.06.76-.17.2-.45-.08-.17.08-.45.57-.2-.09-.4.4-.08.34.11.23-.22.25h-.26l-.6.37-.2.62-.33.17-.34.03-.23.43-.3.1-.3-.05-.25.09-.4-.06-.1-.17-.74-1.36-.43-.57-.4-.33-.73-.29-.62.23-.4.22-.34-.4-.28-.22-.48.14-.37-.02-.14.05h-.46l-.68.68-.17.4-.3.48-.49.4-.9.22-.34-.08-.77-.06-.37-.45-.5-.14-.26.1-.17-.08-.34-.59-.43-.51-.48-.08-.48.1-.88-.3-.56-.09-.9-.25-.26.05-.34-.02-.32-.17-.4.02-.56-.28-.9.17-.2-.11-.31.03-.48.36-.77.12-.17.11-.9-.2-.46-.54-.2-.1-.4.1-.45-.28-.25-.42h-.31l-.6-.2-.34.25-.4-.14h-.5l-.26-.23-.22.15-.15-.2-.2-.2-.65-.28-.42-.03-.31.11-.62-.05-.63.16-.6-.4-.53-.13-.4-.17-.3-.06-.55.34-.82-.06-.28.06-1.1-.14-.54-.17-.85-.14-.17-.12-.6-.2h-.22l-.51.26-.46.65-.4.31-.64.77-.54.28-.31-.06-.51.09-.37.25-.4.63-.2.2-.59-.06-.31.2-.62-.03-.4-.09-1.44-.68-.85-.14-.43.03-.25.17-.48.14-.49.23-.4-.11-.47.14-.29-.09-.73.29h-.29l-.28.17-.34-.06-.85.65-.6 1.05-.08.03-.31.2-.6.9-.3.14-.54 1.08-.15.45-.2-.06-.08-.22-.31-.2-.03-.2-.34-.08-.4.08-.28.28-.08.29.11.68-.23.3.2.3-.5.33-.49-.08-.54.2-.34.02-.62.2-.57.03-.2-.45-.22-.43-.6-.48-.4.09-.19-.09-.4-.28-.22-.31-.23-.12-.25.12-.34-.57-.17-.48-.4-.68-.57-.68-.48-.11-.5.05-.66-.3-.2.05-.25-.54-.23-.8-.08-.45-.14-.42-.17-.23-.43-.14-.08-.25-.12-.8-.22-.53-.4-.49.03-.2-.12-.7-.2-.31-.08-.49-.25-1.01.17-.09.17.65-.12.2.12.34.34.23.3-.09.04-.2.3-.05.1-.2.33-.2.03-.17-.34-.2-.23.29h-.48l-.2-.37.34-.09.26-.56-.09-.49-.34.03-.14-.08-.14-.46-.22-.33-.68-.32-.26.15-.42-.37-.06-.6-.09-.11-.3-1.19.02-.34.37-.08.23-.26.2.03.9-.43v-.1l-.42-.04-.32-.28-.42-2.07-.17-.42-.57-.97-1.07-1.3-2.27-2.18-.5-.42-.97-.71-.34-.37-.31.09-1.59-1.36-.28-.14-1.64-.4-2.04-.31h-.68l-.11.11-.54.14-.54-.2-.06-.2.03-1.01-.17-.29.26-.45-.12-.34-.03-.5.09-.2v-.4l.17-.23.06-.65-.23-.4.28-.11-.14-.28.09-.37-.09-.46.11-.3-.25-.26-.03-.45-.28-.17.03-.23-.09-.31.28-.17.26-.51.6-.71.28-.17.2-.31-.03-.26.14-.17.2-.45.4-.54.05-.25.4-.06.56-.4.71-.3.45-.43.12-.26.34-.34.05-.36.12-.03.28-.4.31-.56.03-.26-.14-.25.28-.17.34.1.4-.19.22.06.17.22.6.03.14-.22.08-.32.51-.17.43.29.06.3.22.12.34-.08.23.11.2-.25v-.23l.22-.14.2-.88.28-.08.32-.63-.06-.4.23-.3.48-.4.11.17.31.05.71.66.4.14h.42l-.03.25-.17.4-.34.4.09.2.5.25.2.25.35.14h.7l.4.2.6.06.48.99-.2.48.65.11.23.17.45.15.23.28.3-.48.35-.14.08-.23.4.08.37.29.3.05.1.43-.06.23.14.3.28.18.31.45.74.28.22.31.49.03.08.29.17.2.26-.23.9-.34.6.05.42-.14.28.06.2.17.4-.09.5.12.1.08.42-.62.05-.28.23-.03.23-.28v-.23l-.2-.23.08-.3.26-.32.54-.09.14-.42.31-.06.11-.17.4.12.14-.12.31.09.29-.11.34.14.28-.2h.2l.2.23.25.08.06.31-.23.03.06.31-.37.26-.23-.09-.17.17.03.34-.06.43.32.2h.25l.43-.26.08-.14.6-.43.73.26.17-.31.28.05.34-.17.03-.45.12-.28.28-.09.11-1.1-.17-.37-.08-.74-.23-.28.23-.6.05-.28-.22-.25.05-.29.34-.53.29-.2.65-.26.14.17.31-.08.14-.34.4-.23.34-.05.42-.23-.02-.17.56-.43.31-.48.17.03.34.2.37.08.06-.28.3-.25.6-.2.57-.37h.17l.14-.28.34.17.03-.23.28-.03-.11-.85.25.17.23-.03.51.12.25.22.51-.11.34-.14.34.14.2.23v.42l.71.37.45.11.09-.05.65.11.06.25-.06 1.17.34.2.2.28.48.08.93.68.23.06.03.4.48.16.6.63.14.56.2.2.14-.08.25.08.09.28.25-.02.06.22.34.2.11.37.37.45.25.57h.23l.25.23.09.2h.2l.85.56.65.57Z" data-originalStrokeWidth="0.1049640112280169" style="stroke: rgb(0, 0, 0); stroke-width: 0.104964; filter: none;"></path><path id="ES62" fill="#d1dbdd" stroke="#000" stroke-width="0.1049640112280169" d="m377.94 645.73.12.45-.03.54.08.65-.3.68-.2.25.13.51-.4.4-.78.51-.2.74-.09.68v.42l.4.09.45.2.54.42.2.65-.03.62-.2.34-.25.71-.4.6-.5.5v.77l.08.45.28.51.42.82.09.31.28.6.11.48.32.51.93 1.27.37.15.28.3.34.04.06 1.1-.17-.2-.17-.4-.34.12-.11.2-.03.34-.48.45-.29.08-.28.49.42.99.17.25.37.28.51.26.17.2.23-.03.08-.26.26.43-.34.4-.23.08-.76.03-.63.28-.3-.08v-.17l-.57.08-.09.14-.65.17-.48-.14.06-.17-.37-.28.08-.28-.28-.12.03.31-.29-.05-.17.17-.33-.14-.54-.15-.77.32-.2.4-.53-.15-.06-.34-.45-.34-.63-.17-.53.28-.77-.17-.5.17-.32.29-.28.11-.26.28-.42.06-.4.14-.4.46-.3.79-.2-.2-.23-.06-.51.31-.74.12-.65.4-.48-.57-.57-.48-.42-.48-1.13-.37v.37l-.51-.51-.14-.51-.17-.23-1-2.07-.02-.25-.26-.43-.08-.48-.12-.03-.2-.62.06-.51.11-.28.2-.23-.03-.93.26-.74.11-.5.4-.46-.28-.26-.46.14-.48-.3-.68-.06-.34-.49h-.4l-.33.09-.2-.34-.29-.28-.5-.4-.2-.37-.26-.28-.2-.54v-.28l-.6-.57v-.11l.35-.62.57-.32.56-.42.26-.48.5-.62.23-.49.71-.34.9-.1.54-.46.37-.54.29-.14.4.17.25.34.3.11 1.4-.2.68-.42.45-.03.25-.26.37-.05.28-.14.06-.26.23.14.17-.11.34.28.3-.05.26.3-.22.4.25.37.03.2.6.14.42-.03.2.12.54-.26.34-.3.5-.2.49-.26.14-.62.08-.74.03-.82-.03-.51-.11-.37.23-.57.6-.25.27-1.05-.02-.25.45-.48.34-.23.6-.17.25.57.25-.06.29-.23.48-.17.34-.37.6-.22h.44l.23-.09.94.48.02.54.94 1.08Z" data-originalStrokeWidth="0.1049640112280169" style="stroke: rgb(0, 0, 0); stroke-width: 0.104964; filter: none;"></path><path id="ES11" fill="#d1dbdd" stroke="#000" stroke-width="0.1049640112280169" d="m298.46 529.6.23.15.2-.28.48.28.03.37.17.14v.42l-.12.37.49-.22-.03-.37.37.08.17-.34.53.23.31.03.29.14-.12.34.8.5.17.24.48.28-.03.31.2.6.23.28.14.45.56.57v.17l.9.28.18.2.6.14.1-.11.52.25.25-.03.31.37-.03.17-.36.54-.12.5-.22.04-.46.3v.18l-.45.28-.37-.2-.42-.08-.12.28.06.23-.2.11.03.26.2.22.28-.08.12.22-.2.77.17.14.14.51.48.17-.23.57.03.45.43.76.68.37v.31l-.29.37.03.31.17.34.2.12.34-.09.85-.6.37.37.14.51-.14.34-.6.32-.14.17-.34-.06-.37.23-.22-.2-.26.08-.25.2-.12.51-.45.06-.03.14.29.62.1-.14.1-.51.22-.09.03.46.34.5.5.18.38.65-.03.34-.14.25.17.29-.32-.03.15.34-.17.34h-.49l.06.5.17.55-.48.33-.03.26-.4.17-.22.25-.54.26-.2-.31-.2.08-.1.34h-.63l-.57.43.09.4.17.25.03.31-.54.2-.23.7.14.32-.34.22-.34.49.12.22-.32.34.34.09.29.28.37-.06.4.31.25-.4.5.06.12.26.48.28.23.26.34-.03.28.57-.25.28v.48l-.49.37.26.42.62.29.17.28.31.23-.2.53.03.26-.2.37-.42.4-.11.28h-.23l-.34.25.14.45-.76-.4h-.4l-.25.15-.29.4-.22-.03-.46.22-.14.6-.22.17-.49.03-.1.42-.26.26H301l-.2.3.23.3.51.08-.03.28.11.28-.56.63v.36l-.43.34-.65-.14-.28-.11-.09-.48-.42-.34-.28-.14-.29.2-.25-.12-.14.11-.14.6.05.45-.22.4-.29.28-.5.11-.3-.05-.53.17-.42.08-.34-.11-.26.03-.08-.26-.43.12-.14.22-.37.26-.14-.26.09-.2-.23-.22v-.46l-.48-.05-.03-.2-.37.08.06.26-.26.11-.79.06-.34-.14-.14-.29.25-.36.29-.15-1-.33-.14-.26-.45-.4-.62.12-.23-.14-.22.1-.43.07-.6-.12-.08.31h-.25l-.23.17-.2-.22.2-.4.06-.48.11-.31-.28-.17-.14.4-.29.45-.4.08-.33-.17-.26.09-.5.65-.35-.09-.25.12-.65.05-.51-.11-.46-.28.23-.77-.03-.37-.45-.08-.06-.76.4-.49.34-.2.3-.48.35-.02.28-.26.17.03.45-.11.15-.71-.06-.37-.28-.28-.29.03-.17-.09-.4.14-.1-.08.1-1.1.1-.2-.06-.37-.12.17-.34.14-.22-.17-.2.05-.09.2-.22-.05-.46.25h-.34l-.28.26-.42-.2-.2.17-.31-.12-.29.06-.42-.28-1.05-.17-.06.25-.3.12-.46-.09-.23-.08-.56-.03-.43.25-.2.51-.34.17-.73.14-.31.2-.23.46-.54.22-.68.14-.22.29-.37.14-.23-.26.2-.5-.06-.2.2-.8v-.25l.26-.51-.06-.26.17-.48-.06-.56.12-.32.08-.53.2.05.45-.11.23.25.28-.28-.06-.34.17-.17.23-.57.51-.16.2-.32h.5l.18-.2h.34l.14-.25h.4l.2-.25.28-.12.48.12.03-.43.17-.28.11-.37-.28-.14-.2.17.06.22-.32.09-.1.17.05.25-.37.06-.2.14H278l-.05-.25h-.2l-.17.25-.43.12-.22-.12-.2.23-.23-.23-.25.03-.32-.23-.28.09.43-.96.25.6.14.02.17-.62-.05-.2.17-.28.25.05.11.26.6-.17.23-.43.62-.42h.22l.32-.37-.06-.34-.43.17-.42.08-.62.34-.26-.28-.34-.03-.28.14-.28-.56-.15-.14.2-.43-.14-.4-.31-.16-.28.14-.15-.29.15-.25.4.14.2-.06.13-.25.29-.03.14.23-.06.37-.28.17v.25l.73-.03-.02-.54.28-.3.11-.38h-.2l.09-.36-.09-.29.2-.37.31.03.71-.36-.06-.29.29-.28.34-.2.22-.31.15-.4-.09.26-.4.37-.25-.06-.2.14-.37-.03-.2-.2.17-.28-.17-.14-.33-.03-.2.31.17.2-.2.14-.2.37-.28-.23.22-.22-.28-.29-.68.49.14.42-.54-.03-.14.23-.25-.03-.2.17-.03.37-.6.25-.25-.11.26-.4.03-.34-.26-.4h-.42l.45-.45.14-.34.26-.17.2-.3.05-.43.17-.12.14-.45.31-.14.09-.25h.2l.17-.23.42.03.37-.46.48-.22-.11-.17-.29-.12-.22.29-.43-.06-.37-.17.03-.23-.2-.1-.25.13-.31-.03.14.37-.17.12-.28.05-.23.26-.11-.34-.26-.4-.05-.4-.17-.25.56-.06.17-.2.03-.36-.34-.26-.08-.48.42-.68-.37-.14-.05-.62-.2.2-.06.28-.34-.12-.06-.53-.25.25-.43.06-.05.31-.2.34-.14-.23.17-.3-.23-.35.31-.54.26-.14.34-.68-.23-.25v-.57l.37-.08.28-.37v-.37l.48.11.17-.2.65.12.23-.4-.08-.3-.29.25-.22-.17-.03-.43.42-.14.23-.37.25.09.46-.09.2.2.4.23h.28l.3-.12.2-.34.49-.2.08.29.2-.17.14.11.48-.03-.11-.34.06-.3-.34-.06-.12-.29.12-.11.42-.11.26.14h.42l.09-.51.87.25.06-.34.28-.03-.05.26.25.2.03.17.34.37.37.22.3.03.18.17 1.07-.08.23-.09h.45l.32.23.25.08.62-.14.31-.4.51-.08.37-.31.65.4-.08.59h.5l.07-.2.25-.4-.06-.36.31-.03.32.03.02.36.43.17.14.4-.11.25.28.26.23.34.14-.11-.09-.68.09-.43.25-.28.51-.11-.28-.23-.28.08-.29-.25-.3.08-.23-.4-.4-.16.17-.23.31-.03.17.12.23-.15.34.23.3.06.55-.23.02-.37-.36.09-.14.17-.57-.17-.28.11-.49.06-.22-.23-.34.11.03-.25.22-.17.17-.31-.08-.17.11-.26.28.03.15-.14-.23-.62.17-.12.2.32.34.1.73-.25.17-.22.37-.2.14-.26.43.17.3-.25.58-.17.2-.26.08.37.37.03.03-.2-.26-.08.37-.8.22-.1.46.1.17.18.65-.2.25-.29.32.03.36-.4.2.12.34-.03.03.2-.23.48.17.45-.3.03-.15.14-.03.37-.37.09.32.25.4-.06-.1-.36.2-.29.23.23.11-.26.8-.3.45-.12.34.03.2-.28.42-.12.2-.17.14.26-.42.28-.06.26Z" data-originalStrokeWidth="0.1049640112280169" style="stroke: rgb(0, 0, 0); stroke-width: 0.104964; filter: none;"></path><path id="ES13" fill="#d1dbdd" fill-rule="evenodd" stroke="#000" stroke-width="0.1049640112280169" d="m360.22 550.2-.06.67-.17.31-.5-.02-.26.22-.77-.37-.2.06-.2-.23-.39.09-.28-.09-.03.32-.62.05-.29.4-.17-.09-.2.17h-.4l.15.63-.11.68.08.76-.4-.06-.34-.14h-.3l-.69-.42-.6-.23-.22.03-.08-.4-.48-.28-.34.37-.12.05-.2.34-.56.43-.54.08-.08.26-.51.06-.23-.2-.6.05.2.34-.25.23-.62.06-.37.4-.54.1-.17.15-.28.37-.4.76.14.45.65.26.26-.28.28-.03.17-.43.28-.05.34.36.03.37-.25.06-.23.2-.5-.14v.3l-.32.49.48.25.14-.4.17-.16.29.2.17.22-.17.28.17.4-.06.43-.11.22-.66.14-.36-.4-.29.32-.05.31-.29-.14-.53.2-.2-.23-.26-.06.12-.28.08-.82-.31.06.03.22-.26.12-.3.34v.28h-.55l-.11-.31-.06-.31-.25-.12h-.43l-.28-.4.14-.08.06-.31.17-.11.14.17.25-.29-.22-.53-.31.17h-.17l-.31.2-.17-.06-.15-.26.09-.4-.03-.36.17-.26-.17-.2.09-.67-.29-.29-.56-.11-.6-.26-.31-.53.03-.2-.31-.68-.34-.2-.17-.28-.23-.09-.28.37-.29-.06-.3-.22-.63.4-.42-.2-.17-.23-.54.28-.68-.34-.26-.03-.2.12-.22-.12-.06-.17.17-.3-.08-.2-.31-.1.05-.33-.62-.48-.23-.26v-.25l-.14-.23.31-.56-.14-.34.14-.12.29.09.65-.14.3.2h.26l.09-.4.28-.4.03-.5.31-.12.62.14.37-.03.23-.28.31-.2.34.25.37.2-.06.23.2.08.25-.17.15-.65-.06-.25.08-.2-.2-.17.18-.25.34-.34.05-.26.26-.03.28.17.42-.03.6.12.17.14.25.03.43-.2.2.37.76.08.57-.03.82.12.4-.12.48-.02.5-.29.1.14.76-.08.56.14.4-.2.22-.25h.97l.22.08.77-.22.34.14-.03.3.14.18-.45.06-.31.14-.2.34.34.22.37.09.22-.45.2.05.4-.2.2-.25.48.06.68-.32.42.09.31-.26.2.2.43.03.02.31.4.09-.03.2.2.25.82.28.06.43-.37.11.17.34.17.14.7.06.12.11.51.03.14.26.2-.09.2.14.42.12.43.22.08.37.65.62Zm-15.15 7.64-.14.2.11.45.17-.09.09-.34Zm12.71-6.09.03-.11.54-.09.23.2-.09.26-.28.25-.03.48-.31.11-.12-.2.15-.64Z" data-originalStrokeWidth="0.1049640112280169" style="stroke: rgb(0, 0, 0); stroke-width: 0.104964;"></path><path id="ES42" fill="#d1dbdd" stroke="#000" stroke-width="0.1049640112280169" d="m369.34 595.38.08-.1.6.02.76-.2.14.14.14.57.14.11.46.09.25.56.9.48.12.26.28.28.29.68.9 1.13.2.15.31.53.23.23.08.34-.33.51.02.37.2.42.37.63.17.02.2.32.03.48-.12.62-.25.17-.12.2v.37l.2.62-.08.62-.23.26-.28.5.25.43-.2.14-.67.37-.49-.42-.48-.12h-.28l-.34.74-.03 1.05-.65.17-.23.14-.53.6-.15.28-.22-.03-.14.28.22.06.31.3.32.72.28.22.25.43-.3.03-.18.25-.03.31.29-.08.3-.26.35.34.08.26.6.82.25.22.26.51.4.49.45-.17.48.4.56-.15-.14.77-.14.22-.14.17.17.37.48.4-.2.11.4 1.16.03.43.17.1.42-.02.74.28.54.34 1.27-.11v.23l.2.22.03.34-.2.14-.74.17-.14.4.11.31-.2 1.08-.2.34-.13.56-.34.43-.26.2-.48.62v.45l.09.31-.32.37-.2.06-.48-.06-.62-.42-.82.54-.37.45-.5.96-.26.11-.43.03-.17 1.05.06.17-.2.34-.11.45h-.17l.08.4.26.23-.14.17.22-.03v.34l.2-.03.28.34-.17.2.15.28.6-.14.08.31h.34l.4.57.59.05.42.31.14-.02.71.42.26-.14.1.23.32.05.23.23-.26.45-.14.94-.45.99-.54.42-.28.71-.26.11-.06.4-.17.17-.08.45.08.2.49.45.25.63.54.82.14.5.62.12h1.42l.25-.17.32.2h.28l-.03.31.2.6.23.17-.15.22-.11.46v.5l-.08.37v.54l-.54.09.17.76.3.88-.25.28-.53.34-.97-.11-.25-.17-.94-1.08-.02-.54-.94-.48-.23.09h-.45l-.6.22-.33.37-.48.17-.29.23-.25.06-.26-.57-.6.17-.33.23-.45.48.02.25-.28 1.05-.6.25-.22.57.11.37.03.5-.03.83-.08.74-.14.62-.48.25-.51.2-.34.31-.54.26-.2-.12-.43.03-.59-.14-.03-.2-.25-.37.22-.4-.25-.3-.31.05-.34-.28-.17.11-.23-.14-.06.26-.28.14-.37.05-.25.26-.45.03-.68.42-1.4.2-.3-.11-.26-.34-.4-.17-.28.14-.37.54-.53.45-.91.11-.7.34-.23.49-.51.62-.26.48-.56.42-.57.32-.34.62v.11l-.48-.03-.34-.2-.37-.1-.17-.23-.7-.34-.32-.32-.5-.22-.15-.2.5-.37.2-.34.23-.08.43-.4.14-.31.37-.17.08-.37-.08-.28.22-.26.03-.37.14-.25-.08-.42-.51-.26-.06-.11.23-.88-.11-.48.17-.48-.4-.14-.37-.17h-.25l-.26-.26-.05-.23.25-.62-.08-.4.17-.2-.32-.42-.2-.11-.59.03-.48.11-.37-.11-.42-.31-.14-.23-.32-.26-.56.49-.54.22-.43.09-.48.34h-.17l-.2-.32-.48-.16h-.4l-.22.25-.31.11-.03.4-.25.17-.71-1.33-.9.45-.2.14-.29-.08-.42-.28-.6-.15-.88-.3-.34-.43-.3-.12h-.77l-.17.46.03.22-.57.23-.25.26-.74.05-.2-.14-.62-.23v-.48l-.11-.25-.37-.2h-.23l-.17.82-.23.11-.36.03-.43-.28-.7-.28-.4-.29-.2.14-.37-.25-.65-.09-.37.12-.06.37-.42.28-.28-.09-.63.03-.79-.08-.62-.14-.31-.2-.6-.2h-.28l-.34-.17H330l-.26-.2-.2.06-.93-.48-.65-.15-.26.37.06.6-.31.03-.65-.57-.85-.57h-.2l-.09-.2-.25-.22h-.23l-.25-.57-.37-.45-.11-.37-.34-.2-.06-.22-.25.02-.09-.28-.25-.08-.15.08-.2-.2-.14-.56-.6-.63-.47-.17-.03-.4-.23-.05-.93-.68-.48-.08-.2-.29-.34-.2.06-1.16-.06-.25-.65-.11-.09.05-.45-.11-.7-.37v-.42l-.2-.23-.35-.14.17-.06.51.12.2-.09.34-.37.31-.5.23-.74.25-.46.54-.53.23.02.8.23.19-.65.2-.28-.14-.2-.68-.29-.17-.25-.26.08-.14-.42v-.4l-.06-.22-.1-1.05.3.11.4.26.37.34.37.08.25-.2.2.03.17-.28-.14-.2-.29-.2-.17-.4.12-.3.22-.18.14-.5.4-.2.48-.57.46.26.5.02.37.2.51.46.4.17-.14-.43-.26-.23-.28-.45-.03-.6-.22-.25-.2-1.33.36-.06.46.03.03-.34.85-1.36-.17-.56-1.14.45-.34.28-.53-.05-.6.2-.2-.03-.25.14-.4-.17-.5-.51-.18-.03-.7-.93-.35-.8-.22-.4-.37-.1-.48-.71-.23-.6-.68-.99-.03-.14.43-.31.37-.4.05-.23.23-.22-.09-.14.17-.43.26-.28-.09-.26-.28-.45.23-.23v-.79l-.6-.08-.62.48-.23.25-.56-.28-.23-.06-.06-.2.29-1.13.48-.42-.09-.37-.4-.43-.64-.05-.4.08-.08-.14.2-.62.67-1.16.14-.51.03-.48-.03-.46.2-.54v-.25l.17-.11.4-.09.25.23.34.03 1.2.3-.04.3.12.19.42.06.46-.06 1.01-.65.29-.23.4.03.36-.06.06.6-.14.34.9-.03-.05-.2h.53l.17-.34-.05-.31.85-.4.62-.14.48-.37-.08-.4.28-.36.57.4.3-.2.18.11.54-.11-.15.4.17.25-.08.14-.03.6.31.16.14.17.54.09.62-.23.03.2.54.26h.23l.14-.26.65-.17.37.03.25-.14.14-.29.54-.4.2-.05.17-.48.34.17-.14.62.08.48.29.57.37.23.42-.26.42-.62.29-.06.37.23.05-.31.23-.17.25.2.06.34.26.2-.12.28.29.05.36.23.54-.37.26.31.4.12-.06.28.42.57.57.05-.09.26.09.14.3-.14.24.28.53.09.29.28v.2l.25.2.54-.17.23.36.08.4.31.2.43-.2.22.23.31.17.26-.17.14.37.65.45-.17.2.06.28-.26.48-.28.09-.23.3-.17-.1-.34.33-.28-.1-.56.53-.2.42-.37-.08-.28.11-.09.17-.28-.17-.31.09-.43.02-.34.17.06.49.42.17.26.3h.17l.45-.36.34-.14.28-.34.51-.17.2.17.34-.2.71-.03-.03-.4.65-.14.12-.2.9.06.31-.45.14-.06 1.2.26.42.28.06-.23.28-.08.03-.4.5-.03.29.09.25.54.23.05h.51l.2.12.45-.09.4-.34.34-.08v.48l.65.2.45-.12.63-.45-.03-.28-.2-.4-.28-.28.17-.34.28.14-.11-.2-.06-.4.2-.76-.03-.42-.14-.29.05-.2-.14-.28-.28.06-.43.22-.4.51-.25-.3.23-.4.2-.82.42-.32.23-.3-.09-.35.2-.14.23-.54-.14-.17-.12-.54h-.25l-.37-.16.06-.46.11-.25-.03-.4.06-.31-.54-.51-.08-.17-.65.14.16-.34v-.45l-.33-.26-.2-.28.17-.31-.17-.28.17-.06-.51-.43-.06-.65-.34-.3-.14.39-.6-.28-.17-.34.06-.15.4-.36.03-.71-.17-.46-.54-.22.17-.37.22-.25.26-.8.34-.14.14-.31-.23-.17.51-.82.37-.54v-.23l.4-.17-.03-.14-.48-.79.25-.43.03-.33-.31-.03-.34-.31-.17-.03-.06-.43-.14-.42-.22-.12-.17-.22.05-.31.34.11.26-.26.5-.02.46-.54.6.14v-.4l.22-.42.43.03.42.2.23-.12.45.14.54.09.28-.34.06-.23.48-.2.28.06.31.23.8.28.62.4.68-.17.17.11.62-.08.23.05.2-.37.45-.08.08-.11.46.22.08.17-.14.26.09.14-.06.34.62.45.54.17.37-.34.42.11.23-.02.03.45.56.4h.32l.1.34.26.1.4-.02.03.23-.26.34.26.34-.09.25-.2.23.18.22.56-.05.14-.2.23.34.06.54.36.14.12.5-.03.24.54.22.14.31.25-.05.32-.2.42-.17.4.68.48-.23.11.14h.31l.54-.45.77.34.2-.2.33-.08.23-.26.25.43.4.3.09.26.22.12.14-.15-.2-.36.1-.34.22-.23Z" data-originalStrokeWidth="0.1049640112280169" style="stroke: rgb(0, 0, 0); stroke-width: 0.104964; filter: none;"></path><path id="ES43" fill="#d1dbdd" stroke="#000" stroke-width="0.1049640112280169" d="m312.6 601.7.53.22.54.49-.06.22.12.17.36.17.09.26-.09.2.74.56.42.26.37-.06.17.06.4-.06.11-.31.45-.09.2-.34h.29l.22.15.26-.09.56-.03-.36.68-.2.14.03.29-.2.76.11.26.2.73-.4.09-.17.11v.25l-.2.54.03.46-.03.48-.14.5-.68 1.17-.2.62.09.14.4-.08.65.05.4.43.08.37-.48.42-.29 1.13.06.2.23.06.56.28.23-.25.62-.48.6.08v.8l-.23.22.28.45.09.26-.26.28-.17.43.09.14-.23.22-.05.23-.37.4-.43.3.03.15.68 1 .23.59.48.7.37.12.22.4.34.79.71.93.17.03.51.5.4.18.25-.14.2.02.6-.2.53.06.34-.28 1.14-.45.17.56-.85 1.36-.03.34-.46-.03-.36.06.2 1.33.22.26.03.6.28.44.26.23.14.43-.4-.17-.5-.46-.37-.2-.51-.02-.46-.26-.48.57-.4.2-.14.5-.22.17-.12.32.17.4.29.2.14.19-.17.28-.2-.03-.25.2-.37-.08-.37-.34-.4-.26-.3-.11.1 1.05.06.22v.4l.14.42.26-.08.17.25.68.29.14.2-.2.28-.2.65-.8-.23-.22-.02-.54.53-.25.46-.23.73-.3.51-.35.37-.2.09-.5-.12-.18.06-.34.14-.5.11-.26-.22-.51-.12-.23.03-.25-.17.11.85-.28.03-.03.23-.34-.17-.14.28h-.17l-.57.37-.6.2-.3.25-.06.28-.37-.08-.34-.2-.17-.03-.3.48-.57.43.02.17-.42.23-.34.05-.4.23-.14.34-.31.08-.14-.17-.65.26-.29.2-.34.53-.05.29.22.25-.05.29-.23.59.23.28.08.74.17.37-.11 1.1-.28.09-.12.28-.03.45-.34.17-.28-.05-.17.3-.74-.25-.59.43-.08.14-.43.25h-.25l-.32-.2.06-.42-.03-.34.17-.17.23.09.37-.26-.06-.31.23-.03-.06-.31-.25-.08-.2-.23h-.2l-.28.2-.34-.14-.29.1-.3-.08-.15.12-.4-.12-.11.17-.31.06-.14.42-.54.09-.26.31-.08.31.2.23v.23l-.23.28-.23.03-.05.28-.43.62-.08-.08-.51-.12-.4.09-.2-.17-.28-.06-.42.14-.6-.05-.9.34-.26.22-.17-.2-.08-.28-.49-.03-.22-.3-.74-.29-.31-.45-.28-.17-.14-.31.05-.23-.08-.43-.31-.05-.37-.29-.4-.08-.08.23-.34.14-.31.48-.23-.28-.45-.15-.23-.17-.65-.1.2-.49-.49-1-.59-.05-.4-.2h-.7l-.34-.14-.2-.25-.51-.26-.09-.2.34-.4.17-.39.03-.25h-.42l-.4-.14-.7-.66-.32-.05-.11-.17-.31-.23-.29.17-.14-.14-.42.03-.37.3-.57-.16-.34.23-.28-.43-.06-.54-.25-.56.05-.43-.08-.28-.31-.37-.23-.82-.5-.9-.23-.54-.09-.57-.48-.48.14-.4.2-.05.14-.26-.4-.06.32-.68.2-.2.02-.28.29-.25.1-.29.2-.02.32-.51.3-.31-.27-.15-.06-.17.34-1.24.23-.37.28-.14h.2l.4-.17.22-.28.45-.12.23-.25.45-.29.54.06.14-.11.4-.51.45-.12.14-.22-.02-.37-.12-.23.43-.28.2-.28.65-.6.45-.6.2-.13-.14-.37.14-.31-.2-.68-.17-.26-.37-.4-.37-.14-.76.09-.11.08-.54-.3v-.29l.25-.37.09-.54-.37-.25-.57-.26-.45-.53.11-.63-.03-.25.34-.43-.42-.53-.03-.2-.45-.65.08-.34-.11-.57.42-.57-.02-.3.11-.26.17-.17-.31-.48-.54-.29-.34-.45.09-.54-.54-.2-.17-.3-.2-.6-.43-.4-.05-.56-.2-.37.06-.46-.17-.17.11-.05 1.19.37.37.3.36.18.37.03.6.3.76-.22.63.06.4.2.22.02.8.37.33-.14.48.11.4.23.8-.11.13-.23.43-.85.22-.6.17-.14-.08-.45.17-.42.48-.06.48-.45.17-.03.26-.23.02-.37.15-.3-.03-.26.37-.31.17-.74.22-.28.09-.88-.17-.26.05-.14-.3-.2v-.34l-.2-.62-.77-.31-.17-.2-.03-.37.09-.14.05-.48-.14-.23.2-.2.23-.5.22-.12.51.06.26-.31.56.2.6-.03.14-.14.34.53.4.2.14-.11.25.08.34.26.09-.17.6-.26.13.4.37.06.14-.2h.43l.11.08.74.06.5-.28.06-.31-.08-.2.11-.26.43-.25.99-.26.54.09.02-.17.37-.28h.2l.42.1.23-.08.03-.28.4-.34.34-.06.4.06.39-.11.57-.37.56.23.17.4.34.22.09.4.36-.03-.17.37.71.5-.25.49v.25l-.26.09.6.42.53.14-.1.34.16.4.82.56.29.15.45-.4.25-.37h.49l.08.09.48-.31h.34l.06.79-.34.25.08.23.4.2Z" data-originalStrokeWidth="0.1049640112280169" style="stroke: rgb(0, 0, 0); stroke-width: 0.104964; filter: none;"></path><path id="ES41" fill="#d1dbdd" fill-rule="evenodd" stroke="#000" stroke-width="0.1049640112280169" d="m336.86 552.37.22.12.2-.12.26.03.68.34.54-.28.17.22.42.2.62-.4.31.23.29.06.28-.37.23.09.17.28.34.2.3.68-.02.2.31.53.6.26.56.11.29.29-.09.67.17.2-.17.26.03.37-.09.4.15.25.17.05.3-.2h.18l.3-.16.23.53-.25.29-.14-.17-.17.11-.06.31-.14.09.28.4h.43l.25.1.06.32.11.3h.54v-.27l.31-.34.26-.12-.03-.22.31-.06-.08.82-.12.28.26.06.2.23.53-.2.29.14.05-.31.29-.31.36.4.66-.15.1-.22.07-.43-.17-.4.17-.28-.17-.22-.29-.2-.17.17-.14.4-.48-.26.31-.48v-.31l.51.14.23-.2.25-.06-.03-.37-.34-.36-.28.05-.17.43-.28.03-.26.28-.65-.26-.14-.45.4-.76.28-.37.17-.14.54-.12.37-.4.62-.05.25-.23-.2-.34.6-.05.23.2.5-.06.1-.26.53-.08.57-.43.2-.34.1-.05.35-.37.48.28.08.4.23-.03.6.23.67.42h.31l.34.14.4.06.43-.06.3-.17h.26l.2-.22.45-.03.51-.34.37-.03.34.57.23-.06.28.23.28-.14.29.14.05.25-.3.09-.04.22-.36.37.14.26.45.34-.4.36.23.2-.2.6-.34.05-.03.29.32.2.28.02.48.23.25-.03.43.51-.11.2.6.51.16.28-.37.17-.3.34-1-.03-.17-.22-.31.03-.31-.32.11-.3-.48-.29-.57-.2-.48.65-.42.14-.17.49.53.85.4-.06.34-.43.23.29.34-.03.45-.51.23.28-.2.34-.31.37-.14.06-.17.4-.17.13.45.37-.4.54.43.06.22-.09.29.03.4.4.08.25.34.03.05.31.26.17.06.28h.53l.2.06.37.37v.76l.31.34.14.06-.53.26-.46-.09-.08-.25-.48-.23-.23.06-.28-.23-.23.2-.28-.2-.54-.09-.14.2.2.17.05.4-.11.23-.65.59-.46.14.32.31.3-.11.2.23-.16.53-.23.12v.28l.23.09.3.65-.3.34-.09.4.06.62-.17-.03-.17-.51.11-.34-.31-.06.03.23-.2.37.28.05.23.46-.03.14-.62-.03-.09.25.17.29-.2.22.12.8-.12.2.06.33-.25.23-.12.37-.34.17.12.45.28.43.03.53.25.03.14.34.17.65.83.2h.53l.09.17.11.85-.03.31.48.31.37-.28.48-.14.17.08.23-.14.11-.37-.08-.28.23-.22.02-.32.34-.25.29.17.34-.03.22.4-.05.34-.88.93.11.48.29-.05.33.05.37.4.23-.11.48.05.65.31.29-.36.34-.6.22-.08.28-.2-.05-.29.2-.59.42.23.4-.12.3-.34h.8l.8.06.22.09.45.3-.05.46.11.42.14.03.37-.22.2.1.23-.08.84.15.29.17-.03.3-.54.23.09.49.4.48.1.4-.25.1.09.74.9.31.26-.02.56.76.65-.03.51-.31.46-.06.34-.22-.17 1.07.2.46-.06.25.23.26-.06.68-.11.2-.32.22-.17.25.37.29.03.25.2.31-.11.29.28.11.17.2-.17.14-.09.31-.34.26-.02.4-.77-.06-.28.36-.37.09-.45.6-.51-.2h-.51l-.09.45.26.4.05.25-.22.34.03.23-.17.53.14.15.2.45-.03.57.08.28-.45.23-.2-.03-.45.22h-.29l-.17-.25.15-.17.05-.4-.14-.17-.76-.37-.29.34-.28 1.05-.37.23h-.22l.02.4-.2.22-.02.2-.14.45.11.12.03 1.27-.06.65.94.43.02.17.32.36-.03.4-.23.23-.08.34.2.36-.15.15-.22-.12-.09-.25-.4-.31-.25-.43-.23.26-.34.08-.2.2-.76-.34-.54.45h-.3l-.12-.14-.48.23-.4-.68-.42.17-.32.2-.25.05-.14-.3-.54-.23.03-.23-.12-.51-.36-.14-.06-.54-.23-.34-.14.2-.56.05-.17-.22.2-.23.08-.25-.26-.34.26-.34-.03-.23-.4.03-.25-.11-.11-.34h-.32l-.56-.4-.03-.45-.23.02-.42-.1-.37.33-.54-.17-.62-.45.06-.34-.09-.14.14-.26-.08-.17-.46-.22-.08.1-.45.1-.2.36-.23-.05-.62.08-.17-.11-.68.17-.62-.4-.8-.28-.3-.23-.3-.06-.47.2-.06.23-.28.34-.54-.09-.45-.14-.23.12-.42-.2-.43-.03-.23.42v.4l-.59-.14-.45.54-.51.02-.26.26-.34-.11-1.13.11-.31.23-.37.48-.48.37-.11-.03-.46.17-.42.28-.31.45-.46.46-.45.17-.28-.03-.8.08-.25.14-.45.46-.29.17-.02.2-.29.4.12.16-.15.43-.36.45v.31l-.32.37-.02.25-.37-.08-.29.08-.33-.25-.34-.11-.23.28-.23.17-.08.34-.23.06-.45.45-.2.37-.26.05-.22.29-.03.5-.23.6-.56.09-.48-.03-.26-.12-.06-.45-.28-.06-.03.4.14.14-.28.71-.57.2-.02.34-.2.99.06.28-.12.26-.31.2-.06.2.17.3-.11.09-.34-.11-.17.03-.5-.17-.32.05-.37.31-.08.68-.29.09-.05.45-.82-.17-.15-.48-.2.03-.05.6.06.33-.46.26-.03.2-.22.14.05.45-.14.28h-.2l-.62.23-.54-.09-.14-.17-.3-.17.02-.59.08-.14-.17-.26.15-.4-.54.12-.17-.11-.31.2-.57-.4-.28.37.08.4-.48.36-.62.14-.85.4.05.31-.17.34h-.53l.05.2-.9.03.14-.34-.06-.6-.37.06-.4-.03-.28.23-1.01.65-.46.06-.42-.06-.12-.2.03-.28-1.19-.31-.34-.03-.25-.23-.2-.73-.11-.26.2-.76-.03-.29.2-.14.36-.68-.56.03-.26.09-.22-.15h-.29l-.2.34-.45.09-.11.31-.4.06-.17-.06-.37.06-.42-.26-.74-.56.09-.2-.09-.26-.36-.17-.12-.17.06-.22-.54-.49-.54-.22-.45.17-.4-.2-.08-.23.34-.25-.06-.8h-.34l-.48.32-.08-.09h-.49l-.25.37-.45.4-.29-.15-.82-.56-.17-.4.11-.34-.53-.14-.6-.42.26-.09v-.25l.25-.48-.7-.51.16-.37-.36.03-.09-.4-.34-.23-.17-.4-.56-.22-.57.37-.4.11-.4-.06-.33.06-.4.34-.03.28-.23.09-.42-.11h-.2l-.37.28-.02.17-.54-.09-1 .26-.42.25-.11.26.08.2-.05.3-.51.3-.74-.07-.11-.08h-.43l-.14.2-.37-.06-.14-.4-.6.26-.08.17-.34-.26-.25-.08-.14.11-.4-.2-.34-.53.17-.54.37-.2.8-.23.05-.4.2-.16-.32-.46-.28-.56-.06-.85.34-.43.2-.1.2-.32.28-.11v-.57l.03-.28-.5-.37.22-.54.54-.54.22-.45.06-.54-.03-.5.06-.23-.17-.49.22-.79.2-.45.06-.57.31-.08.09-.31-.03-.43-.4-.23-.11-.3.08-.4-.05-.51-.29-.51-.2-.6-.16-.14-.09-.28.06-.23.25-.14.51.34.65.11.37-.05.03-.15.6-.45.08-.2.34-.3-.14-.46.05-.17.31-.11.37-.32.54-.3.2-.38v-.08l.76-.6.26.15.31-.06.37.28h.42l.14-.22.49-.26.2.26.36-.12-.14-.25.2-.11.62-.09.31-.5.23-.24.31.03.26-.17-.17-.2.05-.28.4-.08.2.34.5-.15-.13-.3.08-.2h.26l.25-.23-.06-.31.34-.31.06-.2.57-.31.17-.32.48-.4.2-.36.34-.17-.12-.42-.42-.34-.17-.57-.4-.54-.2-.17-.68-.42-.34-.03-.36-.23-.29-.03-.28-.17-.23.29-.48.08-.31-.14-.17-.31-.26-.26.15-.3-.09-.4.03-.32-.14-.17.22-.2.23-.36.06-.31.34-.46.03-.28.36-.68-.73-.4.2-.22.34-.57v-.28l-.46-.57-.22.31-.34.12-.23-.09-.88-.03-.73-.36-.09-.85-.6-.29-.05.43-.25.4h-.4l-.26-.15-.42.03-.54-.23h-.14l-.11-.53-.37-.12v-.36l.56-.63-.1-.28.02-.28-.51-.09-.23-.28.2-.31h.26l.25-.26.11-.42.49-.03.22-.17.14-.6.46-.22.22.03.29-.4.25-.14h.4l.76.4-.14-.46.34-.25h.23l.11-.29.43-.4.2-.36-.03-.26.2-.53-.32-.23-.17-.28-.62-.29-.26-.42.49-.37v-.48l.25-.28-.28-.57-.34.03-.23-.26-.48-.28-.11-.26-.51-.05-.26.4-.4-.32-.36.06-.29-.28-.34-.09.32-.34-.12-.22.34-.49.34-.22-.14-.31.23-.71.54-.2-.03-.31-.17-.26-.09-.4.57-.42h.62l.11-.34.2-.08.2.3.54-.25.23-.25.4-.17.02-.26.48-.33-.17-.54-.06-.51h.49l.17-.34-.15-.34.32.03.62.45.2.4.17-.2.45-.34h.51l.7.08.35.12.08.17.34.02.51.26.14-.17.4-.03.23.2.22-.2h.54l.2-.45-.51-.2-.03-.28.11-.17.32.25.2-.17.2.11.22-.14.03-.34.22.03.06-.4h.34l.28-.28.31.34.03.26.4.2.2-.12.22.43.34.14.17-.12.26-.42.34.08.11-.05.43.4.14.25.6-.06.22-.65.17-.14.17.23.2.02.4.32.67-.03-.03.48.12.45.45.43.06.2.34.05-.06.29.34.02.23.37.3.03.26.14.6-.03.03-.3.53-.63.2-.31.63-.17.76.6.37.05.3.14.1.2.36.17.26-.11.28.02.14.17.23-.3.08-.26.48.05.77.29.25-.71.26-.11.28.08.06.23.4.08.36.17.26-.11.3.03.38.17.48-.2.28-.03.34-.14.09.23.5.1.29-.53-.03-.2.28-.3.12-.38.76.09.31.28.06-.23.57-.42.34-.2.3.03.15-.14h.25l.26.22.17.29-.06.22.23.34-.06.2-.14.12.14.34-.3.56.13.23v.25l.23.26.62.48-.05.34.3.08.1.2-.18.31Zm-2.24 46.75h.48l.46.09.05-.17-.22-.34-.2-.12-.43.17Zm28.34-37.4.12.2.22-.06 1.14.14.25.26.43.17.48.34h.6l.13.4.46-.07-.14.37-.17.26-.29.2-.17-.06-.11.34.17.17.14.37.43.11.2-.31.22.08-.06.71-.45.11-.48-.33h-.4l-.37-.12-.14-.22-.5-.34-.32-.03-.11.17-.7-.2-.15-.68h-.17l-.37-.28-.03-.2-.2-.14-.14-.29.14-.6.2-.16Zm-17.89-3.88.23.22-.09.34-.17.09-.11-.45Z" data-originalStrokeWidth="0.1049640112280169" style="stroke: rgb(0, 0, 0); filter: none; stroke-width: 0.104964;"></path><path id="ES22" fill="#d1dbdd" fill-rule="evenodd" stroke="#000" stroke-width="0.1049640112280169" d="m393.32 564.07-.43-.14h-.36l-.57.3v.3l-.14.33-.23.09-.34.28-.03.73-.14.15.11.3-.17.26-.25.2-.37-.06-.05.32-.32-.06-.2.17-.25.4-.34.1h-.45l-.23-.08-.34.17.06.31-.12.23v.23l-.33.14-.4-.11-.48-.06-.46-.14-.17.7h-.3l.08.26-.48.28-.06.51-.42.12-.49-.34-.53.82.2.34v.25l-.32.46-.37.1-.45.43-.06.29-.3.56.3.17.06.31-.37.26-.56.62-.23.2.06.31-.23.6-.28.42-.03.37.25.42-.14.49.03.17-.14.42.4.45v.26l.14.42.6.12v.56l-.55.4-.48.6-.2.39-.17.11v.26l-.3.11-.15.28-.2.12-.45-.14-.25-.2-.43-.06-.34.23-.5-.17-.52-.34-.2-.48-.82-.46-.2.23-.4-.14-.25-.17-.4-.65-.33.03-.29-.2h-.34l-.14-.29-.14.09-.34-.51-.25-.11-.03-.6.22-.37.97-.79.08-.28.23-.14.56.36.29-.2.34.06.25.37.6-.25-.17-.2-.03-.26.31-.34-.28-.05-.03-.32-.26-.16h-.25l-.51-.32h-.28l-.26-.22-.11-.29-.26-.3-.08.13-.28-.2.2-.3-.06-.26-.26-.06-.31-.25.11-.17-.3-.31-.12-.26-.31-.05-.03-.37-.6-.43-.48.14-.37.26-.28-.11.2-.4-.08-.34-.32-.37.17-.25-.36-.2-.68.14-.12-.2h-.34l-.05-.17-.29-.14v-.23l-.53-.4-.26-.08-.37-.25-.14.22-.17.03-.08-.28-.32-.17-.3-.09-.26-.36.03-.43.45-.03-.03-.53.14-.15.03-.9-.34-.2-.37.54-.22-.29-.43-.02-.03-.63.23.12.31-.26.26-.34.5-.2.35.09.34.5.25.12.23-.2.68-.14-.03-.37-.23.06-.06-.23.12-.48-.12-.25.15-.29.79-.14-.14-.73.2-.15.02-.28.57-.42.06-.17-.03-.43.03-.4-.09-.22.17.03.09-.48.11-.2.26-.06.1-.22.23.05.15.28.36-.05.54.08.2-.11.23-.42.6.02.22-.05.2-.34-.12-.46.37-.45v-.34l.17-.14.51-.09.23-.22h.25l.74-.65-.17-.31.08-.37-.02-.34.36-.43.31.03.37-.06.46-.14.08-.17.4-.11.08-.54.2-.2.26.03.53-.08.37-.2.57-.03.54.26-.12.36.03.31.17.4.48.11.31-.5-.05-.2.42-.06.4.08.2.26.28.2.57.22.22-.08.34.42.03.37-.11.29-.06.62-.31.14-.06.42-.28.51-.43.37-.36.14-.12.29.37.76 1.13.54.23-.48.11-.54-.02-.2.22-.28.2-.09h.7l-.47.43-.2.4.5.42.06.2.23.05.28-.17.63.51.14-.05.34.3.14.32.31-.23.4.32.11.22.88.29.14.34.34.34.34.2h.34l.17-.15.17.2.48.17h.4l.34.08.34-.17h.53l.26.46-.06.34Zm-5.95 8.58-.11.11-.96-.4.48-.62.42.4Zm-1.58.34-.4.14.08-.43.32-.14.11.09Z" data-originalStrokeWidth="0.1049640112280169" style="stroke: rgb(0, 0, 0); filter: none; stroke-width: 0.104964;"></path><path id="ES12" fill="#d1dbdd" stroke="#000" stroke-width="0.1049640112280169" d="m341.33 545.86-.05.26-.34.34-.17.25.2.17-.1.2.07.25-.15.65-.25.17-.2-.08.06-.23-.37-.2-.34-.25-.31.2-.23.28-.37.03-.62-.14-.31.11-.03.51-.28.4-.09.4h-.25l-.31-.2-.65.14-.29-.09.06-.2-.23-.34.06-.22-.17-.29-.26-.22h-.25l-.14.14-.31-.03-.34.2-.57.42-.06.23-.3-.28-.77-.09-.12.37-.28.31.03.2-.28.54-.51-.11-.09-.23-.34.14-.28.03-.48.2-.37-.17-.31-.03-.26.11-.36-.17-.4-.08-.06-.23-.28-.08-.26.1-.25.72-.77-.29-.48-.05-.08.25-.23.31-.14-.17-.28-.02-.26.1-.37-.16-.08-.2-.31-.14-.37-.06-.76-.6-.63.18-.2.3-.53.63-.03.31-.6.03-.25-.14-.31-.03-.23-.37-.34-.02.06-.29-.34-.05-.06-.2-.45-.43-.12-.45.03-.48-.68.03-.4-.32-.2-.02-.16-.23-.17.14-.23.65-.6.06-.13-.26-.43-.4-.11.06-.34-.08-.26.42-.17.12-.34-.14-.22-.43-.2.11-.4-.2-.03-.25-.3-.34-.29.29h-.34l-.06.4-.22-.04-.03.34-.23.14-.2-.1-.2.16-.3-.25-.12.17.03.28.5.2-.19.45h-.54l-.22.2-.23-.2-.4.03-.14.17-.5-.26-.35-.02-.08-.17-.34-.12-.71-.08h-.51l-.45.34-.17.2-.2-.4-.62-.45-.17-.29.14-.25.03-.34-.37-.65-.51-.17-.34-.51-.03-.46-.23.09-.08.5-.11.15-.29-.62.03-.14.45-.06.12-.51.25-.2.26-.08.22.2.37-.23.34.06.14-.17.6-.32.14-.34-.14-.5-.37-.37-.85.6-.34.08-.2-.12-.17-.34-.03-.3.29-.38v-.3l-.68-.38-.43-.76-.03-.45.23-.57-.48-.17-.14-.51-.17-.14.2-.77-.12-.22-.28.08-.2-.22-.03-.26.2-.11-.06-.23.12-.28.42.08.37.2.45-.28V537l.46-.31.22-.03.12-.51.36-.54.03-.17.2-.25.31.17.57-.03.25-.17 1.02.37.46.1.22.26.43.09.3-.14.43.2.68.22.34-.05h.48l.37.42h.34l.46.34h.53l.34.11.14-.36.51.45.49-.03.5.31.37-.11.4.03.88-.23.08-.17.29.34.14-.03.25.43.26-.03.42.17.2.22.4.03.42-.05.7-.26.24.2.53.14.23-.08.23-.29.3-.05.1-.32.45.09.36-.2.06-.31.23-.03.11.37.25.06.37.34-.17.25.26.23.08.4.26.28.3.17.18.45.31.2.28.06.49-.2.33.25.63.09.22.11.23-.06.31.2.37-.06.51.12h.28l.31.45.17-.03.34.14.74.17.31.34-.03.29.2.14.28.37.12.25h.34l.2.09.42.02.34-.05.11.17.43.14.4.31.48.17.6.09.64.17.65.48.94.37.45.14.43.4.36.16.46.09.3.22.49.2.5.06.66.08Z" data-originalStrokeWidth="0.1049640112280169" style="stroke: rgb(0, 0, 0); stroke-width: 0.104964;"></path><path id="ES52" fill="#d1dbdd" fill-rule="evenodd" stroke="#000" stroke-width="0.1049640112280169" d="m400.93 608.13.4.22.4-.11v.34l.14.28.37-.03.4.4-.43.5-.06.32.17.28.26.15.42.3.45.18.4.03.6.62.02.62.54.37.54.25-.54.85-.65.68-.2.37-.34.31-.28.68-.31.4-.54.48-.08.25-.32.29-.87.65-.29.6-.14.14-.4.05-.48.26-.34.4-.62 1.1-.5.62-.24.09-.36-.03-.48.3-.46.77-.17.4-.2.14-.17.54-.22.48-1 .76-.16.06-.8.9-1.16 1.56-.17.34-.2.6-.14.31-.48.34-.34.34-.42.88-.51.56-.26.49-.11.93-.25.37-.03.31.14 1.39.22.96.8 2.55-.26.03-.11.25v.51l.37 1.61.62 1.56.51.85.51.74.42.5.37.38.65.28.32-.03.56.26.45.48.32.05.28.31.45.34-.22.12.05.45.2.26.26.02.05.6-.42-.03-.6.34-.2.2-.05.22-.43-.02-.2.17-.28.02-.5.57-.46-.03-.17.17-.28-.14-.4.09-.23.1-.48.49-.14.37v.28l-.25.31-.37.23-.2-.2-.48-.11-.2.03-.34.28-.76.06-.26.14-.4.05-.59.15-.7.42-.52.2-.48.57-.34 1.1-.25-.09-.2-.2-.85.4-.23.17-.22.54-.06 1.1.03.6-.17.28-.31.06-.8-.11-.42.22-.45.71-.4 1.53-.14.82.05.2-.17.31-.2.14-.45.03-.22.57-.2.08-.12.26-.48.4-.3.96-.35-.03-.28-.31-.37-.15-.93-1.27-.32-.51-.1-.48-.3-.6-.08-.3-.42-.83-.28-.5-.09-.46v-.77l.51-.5.4-.6.25-.7.2-.35.03-.62-.2-.65-.54-.43-.45-.2-.4-.08v-.42l.09-.68.2-.74.79-.51.4-.4-.15-.5.2-.26.31-.68-.08-.65.03-.54-.12-.45.97.11.53-.34.26-.28-.31-.88-.17-.76.54-.09v-.54l.08-.37v-.5l.11-.46.15-.22-.23-.17-.2-.6.03-.31h-.28l-.32-.2-.25.17h-1.42l-.62-.11-.14-.51-.54-.82-.25-.63-.49-.45-.08-.2.08-.45.17-.17.06-.4.26-.11.28-.7.54-.43.45-1 .14-.93.26-.45-.23-.23-.31-.05-.11-.23-.26.14-.7-.42-.15.02-.42-.3-.6-.06-.4-.57h-.33l-.09-.31-.6.14-.14-.28.17-.2-.28-.34-.2.03v-.34l-.22.03.14-.17-.26-.23-.08-.4h.17l.11-.45.2-.34-.06-.17.17-1.05.43-.03.25-.1.51-.97.37-.45.82-.54.62.42.49.06.2-.06.3-.37-.08-.3v-.46l.48-.62.26-.2.34-.43.14-.56.2-.34.2-1.08-.12-.3.14-.4.74-.18.2-.14.25.23.17-.17.31.11.17-.11.34-.03.51.17.54-.06.6.4.22.23.2-.14.17.68-.2.22.11.54-.2.37.32.42.31.14.6-.36.5-.12-.1-.28-.32-.34-.03-.45-.08-.34.17-.2.05-.37.51-.14.2.03.37-.34.17-.6.6.14.3-.1.34.05.26-.06.28-.28.37-.12v-.5l.34-.43.45-.17.23-.37v-.45l.25-.34.29-.82.73.4.37-.15.28.12 1.02-.37.12-.34-.2-.34.17-.2.2.03.37-.11.22-.46.43-.28.56-.17-.03-.34-.22-.25-.14-.34-.23-.26-.14-.4.17-.22.93-.2.03-.43-.34-.45.23-.5-.06-.63.11-.14.09-.54-.31-.03-.17.11-.48-.28-.2-.03-.09-.25.17-.43-.11-.25.2-.17.6-.09.3.46.23-.26.68-.22h.2l.08-.32-.05-.2.3-.65.18-.08.31-.45.76.08-.05.23.17.3.3.32.6.43.49.14.25-.12.45.12.17.28-.05.37.22.11.48-.4.63-.16.42.22.31-.03Zm-21.6 11.18-1.27.11-.54-.34-.74-.28-.42.03-.17-.11-.03-.43-.4-1.16.2-.11-.48-.4-.17-.37.14-.17.4.12.4.22.28-.08.28.25.31-.2.26-.05.08-.31-.03-.43.15-.28.25-.09.23.9.3.43.06.54.51.2.91.03.2.4.31.14.37.45.11.37-.23.3-.79.3Z" data-originalStrokeWidth="0.1049640112280169" style="stroke: rgb(0, 0, 0); stroke-width: 0.104964; filter: none;"></path><path id="ES21" fill="#d1dbdd" fill-rule="evenodd" stroke="#000" stroke-width="0.1049640112280169" d="M370.55 552.6h.09l.6.45.45.23.56.14.6-.06.28-.1.28.13.34.4h.54l.14.11.31-.2.4-.08 1.05-.11h.54l.2-.17.53.1.6-.19.25-.31.62-.2.6-.06-.17.26.2.34-.09.2.14.17.29.08.17.26-.06.22.11.46-.53.08-.26-.03-.2.2-.08.54-.4.11-.08.17-.46.14-.37.06-.3-.03-.37.43.02.34-.08.37.17.3-.74.66h-.25l-.23.22-.5.09-.18.14v.34l-.37.45.12.46-.2.34-.23.05-.6-.02-.22.42-.2.11-.54-.08-.36.05-.15-.28-.22-.05-.11.22-.26.06-.11.2-.09.48-.17-.03.09.23-.03.4.03.42-.06.17-.57.42-.02.28-.2.15.14.73-.8.14-.14.29.12.25-.12.48.06.23.23-.06.03.37-.68.14-.23.2-.25-.11-.34-.51-.34-.09-.51.2-.26.34-.31.26-.23-.12.03.63.43.02.22.29.37-.54.34.2-.03.9-.14.15.03.53-.45.03-.03.43-.26-.03-.14-.17-.42.11-.82-.31-.06.23-.26-.06-.17-.2-.17.17-.3-.45-.69.22-.02-.3-.29-.23.03-.29-.42.09.28-.45.28-1-.37-.2-.25-.36-.23-.14-.25.03-.17.22-.14.48-.29.09-.34.28-.22-.31-.03-.2.31-.17.08-.42-.33.05.05-.4-.2-.22-.14-.06-.31-.34v-.76l-.37-.37-.2-.06h-.53l-.06-.28-.26-.17-.05-.31-.34-.03-.09-.25-.4-.4-.28-.03-.22.09-.43-.06.4-.54-.45-.37.17-.14.17-.4.14-.05.3-.37.2-.34-.22-.28-.45.5-.34.04-.23-.29-.34.43-.4.06-.53-.85.17-.49.42-.14.48-.65.57.2.48.28-.11.31.3.32.32-.03.17.22 1 .03.3-.34.37-.17-.17-.28-.6-.51.12-.2-.43-.5-.25.02-.48-.23-.28-.02-.32-.2.03-.29.34-.05.2-.6-.23-.2.4-.36-.45-.34-.14-.26.36-.37.03-.22.31-.09-.05-.25-.29-.14-.28.14-.28-.23-.23.06-.34-.57-.37.03-.5.34-.46.03-.2.22h-.25l-.31.17-.43.06-.08-.76.1-.68-.13-.63h.4l.2-.17.16.09.29-.4.62-.05.03-.32.28.09.4-.09.2.23.2-.06.76.37.25-.22.51.02.17-.3.06-.69.37.06.5-.11.29.36.68.51.11-.14-.05-.45-.2-.31.48-.14.5-.34.3-.09.22-.42.54.03.56.25.85.14.34-.22.48-.12.12.54.45.37.08.2.29-.09h.42l.31.51.26.03.25.17.29-.03.1.34.6.09.46.56.05.26.57.28Zm-7.59 9.12-.14.3-.2.18-.14.6.14.28.2.14.03.2.37.28h.17l.14.68.7.2.12-.17.31.03.51.34.14.22.37.12h.4l.48.33.45-.1.06-.72-.23-.08-.2.31-.42-.11-.14-.37-.17-.17.11-.34.17.06.29-.2.17-.26.14-.37-.46.06-.14-.4h-.6l-.47-.33-.43-.17-.25-.26-1.14-.14-.22.06Zm-5.18-9.97.12.26-.15.65.12.2.3-.12.04-.48.28-.25.09-.26-.23-.2-.54.09Z" data-originalStrokeWidth="0.1049640112280169" style="stroke: rgb(0, 0, 0); stroke-width: 0.104964;"></path><path id="ES24" fill="#d1dbdd" fill-rule="evenodd" stroke="#000" stroke-width="0.1049640112280169" d="m393.32 564.07-.17.11v.31l.17.26.28.17.28-.06.37.62.14.06.23.34.23.14-.06.57.37-.03.11.2-.08.3.22.12.17-.28.29-.09.02-.22.23-.26.43.37.34.17.1.17.52-.14.2.17.45-.26.34-.36.31.08.2-.25.08.14.37.17.29.37.22.05v.2l.31.26.2.05.28.26.32-.2.02.31.51 1 .03.25.54.17.03.45.7.28h.18l.25-.28.43.17.34-.11.17-.2.36.14.4-.03.09-.14.34.03.25-.23.4.2.25.25.48.12.14.5.29.37.4-.17.1-.36.29-.12.25-.22.2.22.23.06.03.28.54.26.62-.12.25.17.29.06.17-.2.73.26.29-.17.3.22.57.17.23.51.2.17-.03.57.14.2.4.2.42.11-.22.7-.29.49-.34.34-.02.25.2.2-.35.26-.2-.12-.14.15.15.48v.5l.3.43-.13.2.22.42-.34.34.29.2.1.23-.22.17.03.2.26.11-.32.4-.14.36-.11.57-.34.48-.17.54-.17.42.17.23-.28.2.02.62-.17.4-.14.11-.3.57v.28l-.2.11-.12.26.11.28-.25.29-.34.02-.37.57-.17-.17-.4.4-.08.25.57.28-.23.71.11.31-.34.09-.05.23-.32-.12-.1.37-.2.26-.46-.06-.2.25-.22.06-.17.28-.12.4-.93.03-.23.37-.14-.06-.28.48-.43.28-.22.26v.42l.17.51-.06.29v.42l.73.2.4-.11.09.34-.12.4.17.45-.48.45-.37.45-.22.09-.51-.12-.09.12v.34l.12.25-.17.45-.2.37-.26.23.54.54.14.4-.42.36.25.26-.05.28.22.5-.22.58-.26.42-.28-.14-.29.05-.45 1.1-.17.2-.54.15-.14.25-.37-.11-.34.14.09.17-.14.29-.03.3.25.1v.22l.09.34-.14.2.54.36-.03.32.22.53.03.43-.22.5-.34.32-.2.6.08.25-.08.37.11.34.2.36-.34.37-.4.23-.11.37-.23-.03-.37.25-.2-.08-.14.4-.14.2-.3.02-.43-.22-.63.17-.48.4-.22-.12.05-.37-.17-.28-.45-.12-.25.12-.49-.14-.6-.43-.3-.31-.17-.31.05-.23-.76-.08-.31.45-.17.08-.31.66.05.2-.08.3h-.2l-.68.23-.23.26-.3-.46-.6.09-.2.17.11.25-.17.43.09.25.2.03.48.28.17-.1.3.02-.08.54-.1.14.05.62-.23.51.34.45-.03.43-.93.2-.17.22.14.4.23.26.14.34.22.25.03.34-.56.17-.43.28-.22.46-.37.1-.2-.02-.17.2.2.34-.12.34-1.02.37-.28-.12-.37.14-.73-.4-.29.83-.25.34v.45l-.23.37-.45.17-.34.43v.5l-.37.12-.28.28-.26.06-.34-.06-.3.11-.6-.14-.17.6-.37.34-.2-.03-.5.14-.06.37-.17.2.08.34.03.45.31.34.11.28-.5.12-.6.36-.31-.14-.31-.42.2-.37-.12-.54.2-.22-.17-.68-.2.14-.22-.23-.6-.4-.54.06-.5-.17-.35.03-.17.11-.3-.11-.18.17-.25-.23-.03-.34-.2-.22v-.23l.48-.03.8-.28.22-.31-.11-.37-.37-.45-.31-.15-.2-.4-.9-.02-.52-.2-.05-.54-.31-.42-.23-.9-.25.08-.15.28.03.43-.08.3-.26.06-.3.2-.3-.25-.28.08-.4-.22-.39-.12.14-.22.14-.77-.56.14-.48-.4-.46.18-.4-.49-.25-.5-.25-.23-.6-.82-.08-.26-.34-.34-.31.26-.29.08.03-.3.17-.26.31-.03-.25-.43-.28-.22-.32-.71-.3-.31-.23-.06.14-.28.22.03.15-.29.53-.6.23-.13.65-.17.03-1.05.34-.74h.28l.48.12.49.42.68-.37.2-.14-.26-.42.28-.51.23-.26.08-.62-.2-.62v-.37l.12-.2.25-.17.12-.62-.03-.48-.2-.32-.17-.02-.37-.63-.2-.42-.02-.37.33-.51-.08-.34-.23-.23-.3-.53-.2-.15-.91-1.13-.29-.68-.28-.28-.11-.26-.9-.48-.26-.56-.46-.09-.14-.11-.14-.57-.14-.14-.77.2-.59-.03-.08.11-.32-.36-.02-.17-.94-.43.06-.65-.03-1.27-.11-.12.14-.45.03-.2.2-.23-.03-.4h.22l.37-.22.28-1.05.29-.34.76.37.14.17-.05.4-.15.17.17.25h.29l.45-.22.2.03.45-.23-.08-.28.03-.57-.2-.45-.14-.15.17-.53-.03-.23.22-.34-.05-.25-.26-.4.09-.45h.5l.52.2.45-.6.37-.09.28-.36.77.05.02-.4.34-.25.09-.3.17-.15-.17-.2-.28-.11.1-.29-.19-.3-.03-.26-.37-.29.17-.25.32-.23.1-.2.07-.67-.23-.26.06-.25-.2-.46.17-1.07-.09-.23.31-.14.03-.43.14.29h.34l.29.2.34-.03.4.65.25.17.4.14.2-.23.81.46.2.48.51.34.51.17.34-.23.43.06.25.2.45.14.2-.12.14-.28.31-.11v-.26l.17-.11.2-.4.48-.6.54-.39v-.56l-.6-.12-.13-.42v-.26l-.4-.45.14-.42-.03-.17.14-.49-.25-.42.03-.37.28-.42.23-.6-.06-.3.23-.2.56-.63.37-.26-.06-.3-.3-.18.3-.56.06-.29.45-.42.37-.11.31-.46v-.25l-.2-.34.54-.82.49.34.42-.12.06-.5.48-.29-.09-.25h.31l.17-.71.46.14.48.06.4.1.33-.13v-.23l.12-.23-.06-.3.34-.18.23.09h.45l.34-.11.26-.4.2-.17.3.06.06-.32.37.06.25-.2.17-.25-.1-.31.13-.15.03-.73.34-.28.23-.09.14-.34v-.28l.57-.31h.36Zm-5.95 8.58-.17-.51-.42-.4-.48.62.96.4Zm-1.58.34.11-.34-.11-.09-.32.14-.08.43Z" data-originalStrokeWidth="0.1049640112280169" style="stroke: rgb(0, 0, 0); filter: none; stroke-width: 0.104964;"></path><path id="ES30" fill="#d1dbdd" fill-rule="evenodd" stroke="#000" stroke-width="0.1049640112280169" d="m351.47 611.92-.28-.14-.17.34.28.28.2.4.03.28-.63.45-.45.12-.65-.2v-.48l-.34.08-.4.34-.45.09-.2-.12h-.5l-.24-.05-.25-.54-.28-.09-.51.03-.03.4-.28.08-.06.23-.43-.28-1.19-.26-.14.06-.3.45-.91-.05-.12.2-.65.14.03.4-.7.02-.35.2-.2-.17-.5.17-.29.34-.34.14-.45.37h-.17l-.26-.31-.42-.17-.06-.49.34-.17.43-.02.3-.09.3.17.08-.17.28-.11.37.08.2-.42.56-.54.28.11.34-.34.17.12.23-.31.28-.09.26-.48-.06-.28.17-.2-.65-.45-.14-.37-.26.17-.3-.17-.23-.23-.43.2-.3-.2-.1-.4-.22-.36-.54.17-.25-.2v-.2l-.29-.28-.53-.09-.23-.28-.31.14-.09-.14.09-.26-.57-.05-.42-.57.05-.28-.4-.12-.25-.3-.54.36-.36-.23-.29-.05.12-.29-.26-.2-.06-.33-.25-.2-.23.17-.05.31-.37-.23-.29.06-.42.62-.42.26-.37-.23-.29-.57-.08-.48.14-.62-.34-.17-.17.48-.2.06-.54.4-.14.28-.25.14-.37-.03-.65.17-.14.26h-.23l-.54-.26-.03-.2h.2l.14-.28-.05-.45.22-.14.03-.2.46-.26-.06-.34.06-.6.2-.02.14.48.82.17.05-.45.29-.09.08-.68.37-.3.31-.06.51.17.17-.03.34.11.11-.08-.17-.32.06-.2.31-.2.12-.25-.06-.28.2-1 .02-.33.57-.2.28-.7-.14-.15.03-.4.28.06.06.45.26.12.48.03.56-.09.23-.6.03-.5.22-.29.26-.05.2-.37.45-.45.23-.06.08-.34.23-.17.23-.28.34.1.33.26.29-.08.37.08.02-.25.32-.37v-.31l.36-.45.15-.43-.12-.17.29-.4.02-.2.29-.16.45-.46.25-.14.8-.08.28.03.45-.17.46-.46.3-.45.43-.28.46-.17.1.03.5-.37.36-.48.31-.23 1.13-.11-.05.3.17.23.22.12.14.42.06.43.17.03.34.3.31.04-.03.34-.25.42.48.8.03.13-.4.17v.23l-.37.54-.5.82.22.17-.14.31-.34.14-.26.8-.22.25-.17.37.54.22.17.46-.03.7-.4.37-.06.15.17.34.6.28.14-.4.34.31.06.65.5.43-.16.06.17.28-.17.31.2.28.33.26v.45l-.16.34.65-.14.08.17.54.5-.06.32.03.4-.11.25-.06.46.37.16h.25l.12.54.14.17-.23.54-.2.14.09.34-.23.31-.42.32-.2.82-.23.4.26.3.4-.5.42-.23.28-.06.14.28-.05.2.14.29.03.42-.2.77.06.4Zm-16.85-12.8.14-.37.43-.17.2.12.22.34-.05.17-.46-.09Z" data-originalStrokeWidth="0.1049640112280169" style="stroke: rgb(0, 0, 0); stroke-width: 0.104964;"></path><path id="ES51" fill="#d1dbdd" fill-rule="evenodd" stroke="#000" stroke-width="0.1049640112280169" d="m415.69 568.9.36.3.29.33.25.2.48-.25.32.4.3-.04.49.12.11.14h.34l.51.28.28.45-.02.43.5.45.29-.14.4-.03.2-.11.3.31.83.03.22-.11.46.17-.12.3.34.2.17.2-.08.32.37.3.02.6.17.4.12.05-.26.29.2.42-.31.17-.2.4.37-.11.14.05.2.62-.34.26-.28.03-.12.14.29.2-.03.42.08.31.96.32.51-.03.12-.43.34.14.28-.28.43.09.42-.03.14-.48h.23l.34.1.34-.22.05.23.23-.03.23.2.4.06.22-.06.51.31.06.17.45.23.06.2.82.2-.06.25.23.17-.06.22.09.6.25.42.37.23.68-.06.88-.4v-.22l.3-.34.35-.14.65.2.65-.17.17-.17.48.34.26-.06.25.23.23.05.22.29.34.08.29.17.4.03v.34l.28.17.34.6.25-.03.37.22h.23l.33-.42.37.05.34.23.85.2.06-.26-.17-.25-.06-.4h.2l.11-.3.26-.04.4-.25.5-.03.26.28.42-.08.09-.23.34-.14.23-.34.28.09.17-.23.22.17.54.06.14-.29.23-.11.26.34.3-.14.38.17.4-.09.19.54.37.45.37-.14.93.09-.08.37-.23.17.11.33-.17.17.09.37.54.4.22-.09.29.03.02.23.29.06.62.22.23.17-.34.23-.34.48.11.25-.11.23-.57.06-.37.28-.5-.5-.26-.18-.37.23-.34.54-.14.34-.03.62.03.5.08.38.71.4.28.67.17.2-.02.26-.2.14-.09.34.03.65.11.45.29.14v.34l-.23.14-.08.46-.23.48-.28.08-.12.37-.5.14-.18.2-.5.03-.46.45-.25.57-.43.25-.25-.02-.63.34-.62.65-.68.22h-.5l-.58.2-.4.23-.22.45-.45.06-.48.22-.71.23-2.1.65-.7.31-.37.12-.94.62-.42.2-1.19.3-.42.18-.26.23-.45.65-.46.42-.2.31-.59.48.09.09-.34.62-.31.26-.68.2-.83.14-1.13-.09-.3.06-.38.14-.45.11-.23.12-.6-.09-.42.2-1.36.17-.36.14h-.43l-.2.06-1.55.03-1.05.22-.8.37-.16.11-.37-.02-.46.08-.62-.11-.48.22-.76.09-.34.2-.26.28-.06.26-.25.1-.28-.36-.37-.06-.51.15-.51-.09-.7.34h-.26l-.34.23-.43.4-.17.25-.22.05-.32.2-.36.4-.2.08-.12.23-.48.45-.62.74-.34.14-.42.34-.09.26-.5.2-.15.1.08.32.29.4.45.2.34-.1.68.83.4.25.2-.2.14.26-.2.34-.45.4-.91.3-.7.35-.3-.11-.47-.03-.48.17-.51.03-.4-.06-1.08.93-.28.46-.17.36-.54-.25-.54-.37-.02-.62-.6-.62-.4-.03-.45-.17-.42-.31-.26-.15-.17-.28.06-.31.42-.51-.4-.4-.36.03-.14-.28v-.34l-.4.11-.4-.22.15-.4.2.08.36-.25.23.03.11-.37.4-.23.34-.37-.2-.36-.11-.34.08-.37-.08-.26.2-.6.34-.3.22-.51-.03-.43-.22-.53.03-.32-.54-.36.14-.2-.09-.34v-.23l-.25-.08.03-.31.14-.29-.09-.17.34-.14.37.11.14-.25.54-.14.17-.2.45-1.1.29-.06.28.14.26-.42.22-.57-.22-.51.05-.28-.25-.26.42-.37-.14-.4-.54-.53.26-.23.2-.37.17-.45-.12-.25V594l.09-.12.5.12.23-.09.37-.45.48-.45-.17-.46.12-.4-.09-.33-.4.1-.73-.19v-.42l.06-.29-.17-.5v-.43l.22-.26.43-.28.28-.48.14.06.23-.37.93-.03.12-.4.17-.28.22-.06.2-.25.45.06.2-.26.11-.37.32.12.05-.23.34-.09-.11-.3.23-.72-.57-.28.08-.25.4-.4.17.17.37-.57.34-.02.25-.29-.11-.28.11-.26.2-.1v-.3l.31-.56.14-.11.17-.4-.02-.62.28-.2-.17-.23.17-.42.17-.54.34-.48.11-.57.14-.36.32-.4-.26-.11-.03-.2.23-.17-.11-.23-.29-.2.34-.34-.22-.42.14-.2-.31-.42v-.51l-.15-.48.15-.15.2.12.33-.26-.2-.2.03-.25.34-.34.29-.48.22-.71-.42-.11-.4-.2-.14-.2.03-.57-.2-.17-.23-.5.23.02.11-.34-.08-.2-.09-.62-.28-.11.37-.37-.28-.2.42-.34.03-.4-.06-.36.71-.31.34.28.6.34.33-.06.46.31Zm15.74 9.21-.42-.03-.32-.25.12-.37.42-.25-.08.4Zm-22.7 33.72-.43.4-.29.17-.36.09-.34-.03-.29-.14-.11-.17.31-.34.2.14.62-.17.28.11Z" data-originalStrokeWidth="0.1049640112280169" style="stroke: rgb(0, 0, 0); filter: none; stroke-width: 0.104964;"></path><path id="ES23" fill="#d1dbdd" stroke="#000" stroke-width="0.1049640112280169" d="m362.14 564.69.2.23-.05.4.33-.06-.08.42-.31.17.03.2.22.31.34-.28.29-.09.14-.48.17-.22.25-.03.23.14.25.37.37.2-.28.99-.28.45.42-.09-.03.29.29.22.02.31.68-.22.31.45.17-.17.17.2.26.06.06-.23.82.31.42-.11.14.17.26.03.25.36.31.09.32.17.08.28.17-.03.14-.22.37.25.26.09.53.4v.22l.29.14.05.17h.34l.12.2.68-.14.36.2-.17.25.32.37.08.34-.2.4.28.1.37-.25.48-.14.6.43.03.37.3.05.12.26.31.3-.11.18.31.25.26.06.05.25-.2.32.29.2.08-.15.26.31.11.29.26.22h.28l.5.32h.26l.26.16.03.32.28.05-.31.34.03.26.17.2-.6.25-.25-.37-.34-.05-.29.2-.56-.37-.23.14-.08.28-.97.8-.22.36.03.6.25.11.34.5.14-.08-.03.43-.3.14.08.23-.34.22-.46.06-.5.31-.66.03-.56-.76-.26.02-.9-.3-.09-.74.26-.12-.12-.4-.4-.47-.08-.49.54-.22.03-.31-.29-.17-.84-.15-.23.09-.2-.11-.37.22-.14-.03-.11-.42.05-.45-.45-.31-.23-.09-.79-.06h-.8l-.3.34-.4.12-.42-.23-.2.6.05.28-.28.2-.22.08-.34.6-.29.36-.65-.3-.48-.06-.23.1-.37-.39-.33-.05-.29.05-.11-.48.88-.93.05-.34-.22-.4-.34.03-.29-.17-.34.25-.02.32-.23.22.08.28-.1.37-.24.14-.17-.08-.48.14-.37.28-.48-.3.03-.32-.11-.85-.09-.17h-.53l-.83-.2-.17-.65-.14-.34-.25-.03-.03-.53-.28-.43-.12-.45.34-.17.12-.37.25-.23-.06-.34.12-.2-.12-.79.2-.22-.17-.29.09-.25.62.03.03-.14-.23-.46-.28-.05.2-.37-.03-.23.31.06-.11.34.17.5.17.04-.06-.63.09-.4.3-.33-.3-.65-.23-.09v-.28l.23-.12.17-.53-.2-.23-.31.11-.32-.3.46-.15.65-.6.11-.22-.05-.4-.2-.17.14-.2.54.09.28.2.23-.2.28.23.23-.06.48.23.08.25.46.09Z" data-originalStrokeWidth="0.1049640112280169" style="stroke: rgb(0, 0, 0); stroke-width: 0.104964;"></path><path id="PT1A" d="m260.44 615.06.3.29.38.02-.12-.28.12-.14.4.17.22.28-.34.31-.14.32-.23.14.34.25-.57.14-.2.2v.23l-.36.28-.12.34-.33.26-.32.36-.42.29-.57.42-.14-.48.17-.45.37-.06.17-.2-.11-.37.2-.56.02-.34-.37.2-.2.42-.45.4-.28.08-.28.26-.34.48-.31 1.05-.29.42-.54.4h-.5l-.77-.03-.65-.31-.45-.06-.43.14-.11.14-.4-.22-.25-.31-.4-.29-.28-.03-.17.17-.2-.17-.31-.08-.31-.4.28-.36.08-.32-.22-.45-.03-.25.9-1.08.32-.48.36-.62.26-.37.14-.37.09-1 .36-.95.46-.06.14.23.37.1-.12.24.26.34-.03.3.23.06.42-.11.37.14.25.37.46-.14.08.37-.14.6-.4.02v.25l.29-.05.4.2.25-.03-.09.42.54.06.2.37.23.08.28-.14-.06-.31-.14-.26.26-.1.28.3.34-.05.23.08.14-.31-.12-.65.23-.09.23.09.05.25.2.06.2-.17.28.14.23.26Zm-2.13 3.23-.05-.34.34-.48h.28l.14.2-.11.17-.46.08Zm-.56-.06-.48.34.08-.34.42-.5.63-.29-.4.6Z" style="font-variation-settings: normal; opacity: 1; vector-effect: none; fill: rgb(209, 219, 221); fill-opacity: 1; stroke: rgb(0, 0, 0); stroke-width: 0.104964; stroke-linecap: butt; stroke-linejoin: miter; stroke-miterlimit: 4; stroke-dasharray: none; stroke-dashoffset: 0; stroke-opacity: 1; stop-color: rgb(0, 0, 0); stop-opacity: 1; pointer-events: auto;" data-originalStrokeWidth="0.1049640112280169" stroke="#000" fill="#d1dbdd" pointer-events="auto" stroke-width="0.1049640112280169"></path><path id="PT1B" d="m265.05 621.32.74.23-.34.56.05.29-.28.05-.25.29-.82.3-.43.32-.17-.03-.48.4-.34.2.06.79-.03.34-.68-.03-.34.28-.28.12-.29-.09v-.37l.12-.22-.15-.15-.25.2-.28.03-.2-.17-.2.17.17.23.06.22.2.29-.35.11-.36-.11-.29-.17-.22-.34-.51-.4-.54.09-.31.36-.43-.05-.28.05-.31.26-.68.11-.45.12-.49-.26-.59.11-.48-.14-.51.29-.37-.17.14-.29.48-.54.26-.45.2-.68.03-.5-.12-1.14-.11-.48-.31-.85.3-.11.83.1h.6l-.09.3.14.28.82.62.17-.17-.17-.2.17-.2.48-.05.15.22.28.03.14-.28.31.05.31-.17-.56-.2-.4-.02-.08-.34.14-.09.45-.03.06-.14.53-.08.4-.17.37.14v.17l.5.28.8-.17.34.51.28.2h.34l.26-.08.28-.6.74-.85.2-.14.11.28.34.37.25.14.29-.34.3-.11v.28l-.1.6-.17.2.34.36.2-.02Z" style="font-variation-settings: normal; opacity: 1; vector-effect: none; fill: rgb(209, 219, 221); fill-opacity: 1; stroke: rgb(0, 0, 0); stroke-width: 0.104964; stroke-linecap: butt; stroke-linejoin: miter; stroke-miterlimit: 4; stroke-dasharray: none; stroke-dashoffset: 0; stroke-opacity: 1; stop-color: rgb(0, 0, 0); stop-opacity: 1; pointer-events: auto;" data-originalStrokeWidth="0.1049640112280169" stroke="#000" fill="#d1dbdd" pointer-events="auto" stroke-width="0.1049640112280169"></path><path id="PT19" d="m272.98 579.07-.48 1.17-.88 1.72-.93 1.73-.57 1.08h.23l.45-.5.14-.44.28-.23.15-.36.02-.43.26-.34.28-.2.2-.48.23.12.14-.34.28.48h-.28l-.77.51-.05.82.34.25-.43.23-.17.57-.43.31-.3-.06-.48.14-.1.29-.41.82-.54 1.13-1.19 2.33-.57 1.1-.85 1.41-.65.96v.23l.37.45.06.48-.18.45-.7 1.2-1.76 2.74-.88 1.28-.56.76-.26.46-.25.36-.09.37-.87 1.47.08.29-.08.22-1.08 1.03-.66.3-.15.12.2-.14.65-.3 1.08-1.03.08-.22-.08-.29.88-1.47.08-.37.26-.36.53.67.37.03.03.31.28.4-.03.23.32.25-.06.57-.4.14v.28l.23.9.34-.1.17.33-.48.46-.03.4-.2.22-.28.65v.01l.6-.07.3.15.65-.03.6.28.48.03-.09-.6.03-.36.2-.15.26.4.34-.17.17-.3.28-.15-.14-.3.11-.69-.08-.57.87-.25.31-.7-.45-.29.17-.29-.1-.5.07-.35.17-.1.6-.15.34.11.22.26.74-.2.6-.45.08.25.5-.34.06.77-.08.53.08.43-.14.4.37-.1.2-.22.4-.03.2.23.33-.23.48-.02.12-.2-.06-.37.4.31.3-.05-.02-.2.31-.17.03-.2.09.06.33.25.33.14.2.36.25.52.06.27-.22.5.01.28.3.36.67.3.3-.17.34-.24.56-.17-.08.1.4.1.2.31.5-.08-.1 1.04-.2.43.42.11.2-.06.22.23.03.31.37.2.03.25.25.68.2.26.06.4-.23.08-.14.4v.02l.42-.06.51-.28.28-.4.45.03.26-.28.03-.28.22-.2.54-.08.23.5.22.06.6-.17.33-.28.4.08.15-.06.11-.05 1.19.37.37.3.36.18.37.03.6.3.76-.22.62.05.4.2.22.03.8.37.34-.14.48.11.4.23.79-.1.14-.24.43-.85.22-.6.17-.14-.08-.45.17-.42.48-.06.48-.45.17-.03.26-.23.02-.37.15-.31-.03-.26.37-.3.17-.74.22-.28.09-.88-.17-.26.05-.14-.31-.2v-.34l-.2-.62-.76-.31-.17-.2-.03-.37.09-.14.05-.48-.14-.23.2-.2.23-.5.23-.12.5.06.26-.31.56.2.6-.03.14-.14.17-.54.36-.2.8-.22.06-.4.2-.17-.32-.46-.28-.56-.06-.85.34-.43.2-.11.2-.31.28-.11v-.57l.03-.28-.5-.37.22-.54.54-.54.22-.45.06-.54-.03-.51.06-.22-.17-.48.22-.8.2-.45.06-.56.31-.1.09-.3-.03-.43-.4-.23-.1-.3.07-.4-.05-.52-.28-.5-.2-.6-.17-.14-.09-.28.06-.23-.37-.1-.17-.15-.26.14.07.16-.4.6-.8.14-.5-.22-.29-.06-.09.14-.45.34-.14.34-.54-.48.28-.57-.17-.28.12-.42.2-.03-.06-.37-.32-.23-.3-.02-.46.45-.17-.28-.82-.17-.2-.18-.14.2-.51-.14-.1.4.5.37.14.22-.3.65-.35.06-.28.23-.12.45-.14.14-.28-.03-.28.37-.45.54-.3.17-.1-.31-.2-.2-.34-.79-.63-.23-.33.2-.46.34-.11-.57-.14-.22-.88.17-.14-.46-.14-.25.34-.29.28-.56-.14-.2-.65-.06-.2-.45.14-.23-.48-.28-.5.4-.29-.6-.37-.37-.26-.08.34-.45-.54-.06-.42.02-.2.4-.37.29-.74-.03-.2-.37-.7-.31-.76.56.03.6-.17.4.11.23.06.5-.1.17-.3.03-.54-.45-.37.28-.22-.08-.32-.4-.36.09.14.62-.2.34-.19.11-.4.62-.12-.45-.28.09-.12-.2-.4.05-.3-.5-.37-.06-.23.11-.22.37-.23-.28-.28-.09-.63.03-.1.14-.38-.17.2-.17-.4-.34.09-.48.28-.17-.11-.54.37-.14.03-.54-.37.26-.26-.14-.14-.32.14-.36-.17-.7.18-.5zm-1.5 4.7-.34.15-.23.46.09.25.37-.22.14-.4zm19.11.5-.22.22-.03.4.37.23.19-.1.17-.35zm-20.3.7.17.03-.23.4v.2l-.22.08.1-.42zm-11.83 20.4h-.04l-.5.6-.85.48.04-.02.85-.48zm-3.34 1.23-.2.11.16.2.4.2-.03.5.14.26v.79l-.25.57-.03.34-.54.93-.7.83-.03.1-.6.66-.03.4.46-.06.14.23.37.11-.12.23.26.34-.03.31.23.05.42-.11.37.14.25.37.46-.14.08.36-.13.58h.04l.14-.6-.09-.37-.45.14-.26-.36-.36-.15-.43.12-.22-.06.02-.3-.25-.35.11-.23-.37-.1-.14-.24-.45.06.03-.4.6-.65.02-.1.7-.83.55-.93.02-.34.26-.57v-.8l-.14-.25.03-.5-.4-.2.03-.28zm22.15 1.76-.35.11v.01l.31-.1.51.34.05.14.43.37.25.42.2-.05.01-.02-.17.05-.26-.42-.42-.37-.06-.14zm-1.12 1.12-.1.24.1-.12zm-.13 2.08-.03.02.22.08.02-.02zm-.77.22v.03l.4.02.02-.02zm-1.87 1.08-.03.02.28.06.03.2.45.11.02-.03-.43-.1-.03-.2zm-.2.14-.14.08zm-.23.51-.36.22zm-13.89 1.2-.22.07.18-.06.23.1.05.24.2.06.03-.03-.19-.05-.05-.26zm.68.21-.03.03.27.14.23.26.03-.04-.2-.25zm-3.93.03h-.05v.25l.28-.05.4.2.26-.03-.1.42.55.06.2.37.23.08.28-.14-.24.11-.23-.08-.2-.37-.53-.05.08-.43-.25.03-.4-.2-.28.06zm2.15.45-.2.1.16-.06.28.3.34-.05.23.08.02-.04-.2-.07-.35.06z" style="font-variation-settings: normal; opacity: 1; vector-effect: none; fill: rgb(209, 219, 221); fill-opacity: 1; stroke: rgb(0, 0, 0); stroke-width: 0.104964; stroke-linecap: butt; stroke-linejoin: miter; stroke-miterlimit: 4; stroke-dasharray: none; stroke-dashoffset: 0; stroke-opacity: 1; stop-color: rgb(0, 0, 0); stop-opacity: 1; pointer-events: auto; filter: none;" data-originalStrokeWidth="0.1049640112280169" stroke="#000" fill="#d1dbdd" pointer-events="auto" stroke-width="0.1049640112280169"></path><path id="PT1C" d="m272.58 613.75-.19.24-.23.03-.7.45-.25-.03-.77.2-.5.6-.38.22-.02.2.67.56-.08.4.28.23-.03.77.17.3h.3l-.1.3-.42.86-.54.48.17.2.62.48.23.26.2-.03.23.28-.4.23-.09.2.23.28.06.4.22-.14.28.34-.3.28-.12.25-.42-.28.08-.37-.3.06-.04-.28-.25-.46-.4.14-.25-.34.08-.22-.3-.26-.19-.28h-.3l-.29.28-.28-.1-.28-.29-.14.25-.46.23-.1-.28-.32.11-.25.34-.37.14-.37-.34-.88.65-.01.04.7.22-.33.56.05.29-.28.05-.25.29-.82.31-.43.3-.17-.02-.48.4-.34.19.06.8-.03.34-.68-.03-.34.28-.28.12-.29-.08.09.3-.17 1.16.31.03.4.74-1.05-.43-.63.06-.16-.14-.23.31-.23-.57.03-.48-.37-.36-.28-.6-.26-.26-.05.34.42.57.34.57.17.65.12.65.02.65-.05.68-.17 1.1-.17.63-.26.71-.42.93-.74 1.25-.71 1.01-.34.32-.22.1v.24l.25.08.17.37h.26l.31.25.05.42-.06.8-.1.28.02.29-.34.76-.08.28-.28.6.17.25.05.46-.48 1.1-.48.99.23.86v.5l-.23.4-.14.54-.12.14-.14.51.1.08.04.17.3.06.27.17.14.71h.2l.45.17.23-.03.23.11.02.28.23.2.34-.36.48.05.37-.05.68.82.14-.12.4.14.34.29.17-.2.22.08.2-.14.03-.31.37-.2.4.03h.3l.43.26.26-.23.51.4-.09.7.37.17.76 1.05.57.32.96.3.23.23.34-.14.25-.28.37-.15h.34l-.1-.31.13-.31h.22l.4-.11.34.17.26-.09.22.15.29-.09.05-.37.54.06.12-.17h.53l.43-.2.14.03.4-.23.93-.05.68.05.2.23.17-.06.22.26.12-.14.28-.03.09-.2.5-.06.8.12.03-.24-.09-.3.28-.17.26-.52.59-.7.3-.17.19-.3-.03-.27.13-.17.2-.45.4-.54.06-.25.4-.05.57-.4.7-.32.45-.42.12-.26.34-.34.05-.36.12-.03.28-.4.3-.56.04-.26-.14-.25.28-.17.34.11.4-.2.22.06.17.22.6.03.14-.22.09-.32.5-.17.43.29.06.31.22.1.34-.07.23.11.2-.25v-.23l.22-.14.2-.88.28-.08.32-.63-.06-.4.23-.3.47-.4-.3-.23-.3.17-.13-.14-.42.03-.37.31-.57-.17-.34.23-.28-.43-.06-.54-.25-.56.06-.43-.1-.28-.3-.37-.23-.82-.51-.91-.22-.53-.09-.57-.48-.48.14-.4.2-.05.14-.26-.39-.06.3-.67.2-.2.03-.29.29-.25.11-.29.2-.02.31-.52.31-.3-.28-.15-.06-.17.34-1.24.23-.37.27-.14h.2l.4-.17.23-.28.45-.12.23-.25.45-.3.54.07.14-.12.4-.5.45-.12.14-.22-.02-.37-.12-.23.42-.28.2-.28.66-.59.45-.6.2-.14-.14-.38.14-.3-.2-.68-.17-.25-.37-.4-.37-.15-.77.09-.1.08-.54-.31v-.28l.25-.37.09-.54-.37-.25-.57-.26-.45-.53.1-.63-.02-.25.34-.43-.42-.53-.03-.2-.45-.65.08-.34-.11-.57.42-.57-.02-.3.11-.26.16-.17-.3-.48-.54-.3-.34-.44.09-.54-.54-.2-.17-.3-.2-.6-.43-.4-.05-.56-.2-.37.06-.46-.17-.17-.14.06-.4-.08-.34.28-.6.17-.22-.06-.23-.51-.54.09-.22.2-.03.28-.26.28-.45-.03-.29.4-.5.28-.46.06-.28.37-.2.05-.25-.42-.43-.37-.06-.14-.5-.34-.34.11-.06.23-.34.4-.34.28v.2l-.16.2.1.51.37.48.23.17.03.28-.29.17-.22.25-.23-.08-.34.25-.42-.02-.06.42-.23.14-.22.34-.46.29-.14.25-.45-.1-.03-.21-.28-.06-.34.23-.05.4z" style="font-variation-settings: normal; opacity: 1; vector-effect: none; fill: rgb(209, 219, 221); fill-opacity: 1; stroke: rgb(0, 0, 0); stroke-width: 0.104964; stroke-linecap: butt; stroke-linejoin: miter; stroke-miterlimit: 4; stroke-dasharray: none; stroke-dashoffset: 0; stroke-opacity: 1; stop-color: rgb(0, 0, 0); stop-opacity: 1; pointer-events: auto; filter: none;" data-originalStrokeWidth="0.1049640112280169" stroke="#000" fill="#d1dbdd" pointer-events="auto" stroke-width="0.1049640112280169"></path><path id="PT15" fill="#d1dbdd" fill-rule="evenodd" stroke="#000" stroke-width="0.1049640112280169" d="m275.53 648.62.28.17.03.45.25.25-.1.31.08.46-.09.37.14.28-.28.11.23.4-.06.65-.17.23v.4l-.09.2.03.5.12.34-.26.45.17.29-.03 1.02.06.2-.09.05-.53-.23-.43-.08-.6.03-.42.11-.62.03v.11l-.65.23-.34.23-.88.36-.6.17-.3.17-1.25.49-.2-.4-.65.03-.14.45-.71.37-.31-.26-.31-.14-.12-.17-.4-.25-1.18-1.36-.34-.34-1.25-.82-.73-.06-.29-.14-.17.11-.45.03-.31-.14-.57-.6-.22-.1-.54.08-.68-.09-.7-.48-.5-.26-.02-.17-.48-.17-.09.06-.48-.28-.62-.06-.4.14-.17.48-.22-.14-.74-.17-.4.12h-.42l-.62-.09-1.1.17-.35.28h-.3l-.12.29-.28-.14-.17-.4-.46-.09.29-.3.05-.23.34-.26.17-.4.43-.28.7-.93v-.43l.26-.25.65-.77.17-.28.03-.48-.14-.09.22-.53.6-.6.73-.93.12-.31.17-.12.05.17.29.06.28.17.14.7h.2l.45.18.23-.03.23.11.02.29.23.2.34-.37.48.05.37-.05.68.82.14-.12.4.14.34.29.17-.2.22.08.2-.14.03-.3.37-.2.4.02h.3l.43.26.26-.23.5.4-.08.7.37.17.76 1.05.57.31.96.31.23.23.34-.14.25-.28.37-.15h.34l-.11-.3.14-.32h.23l.4-.11.33.17.26-.09.22.15.29-.09.05-.37.54.06.12-.17h.53l.43-.2.14.03.4-.23.93-.05.68.05.2.23.17-.06.22.26.12-.14.28-.03.09-.2.5-.06Zm-6.51 8.86-.23.14-.88.23.48-.32.23.06Zm-.51-.11-.29-.17.57-.15.11.29Z" data-originalStrokeWidth="0.1049640112280169" pointer-events="auto" style="stroke: rgb(0, 0, 0); fill: rgb(209, 219, 221); pointer-events: auto; stroke-width: 0.104964; filter: none;"></path><path id="PT11" fill="#d1dbdd" fill-rule="evenodd" stroke="#000" stroke-width="0.1049640112280169" d="m283.68 564.58.46.28.5.11.66-.05.25-.12.34.09.51-.65.26-.09.34.17.4-.08.28-.46.14-.4.28.18-.11.3-.06.5-.2.39.2.22.23-.17h.25l.09-.3.6.1.42-.05.22-.11.23.14.62-.12.45.4.15.26.99.33-.29.15-.25.36.14.29.34.14.8-.06.25-.11-.06-.26.37-.08.03.2.48.05v.46l.23.22-.09.2.14.26.37-.26.14-.22.43-.12.08.26.26-.03.34.11.42-.08.54-.17.28.05.51-.1.29-.3.22-.39-.05-.45.14-.6.14-.11.25.11.29-.2.28.15.42.34.09.48.28.11.65.14.43-.34.37.12.11.53h.14l.54.23.42-.03.26.14h.4l.25-.4.06-.42.6.29.08.85.73.36.88.03.23.09.34-.12.22-.3.46.56v.28l-.34.57-.2.22.73.4-.36.68-.03.28-.34.46-.06.3-.23.38-.22.2.14.16-.03.32.09.4-.15.3.26.26.17.31.31.14.48-.08.23-.29.28.17.29.03.36.23.34.03.68.42.2.17.4.54.17.57.42.34.12.42-.34.17-.2.37-.48.4-.17.3-.57.32-.06.2-.34.3.06.32-.25.22h-.26l-.08.2.14.31-.51.15-.2-.34-.4.08-.05.28.17.2-.26.17-.31-.03-.23.23-.3.51-.63.09-.2.1.14.26-.37.12-.2-.26-.48.26-.14.22h-.42l-.37-.28-.31.06-.26-.14-.76.59v.08l-.2.37-.54.31-.37.32-.3.1-.06.18.14.45-.34.31-.09.2-.6.45-.02.15-.37.05-.65-.11-.5-.34-.26.14-.37-.11-.17-.14-.26.14.06.17-.4.6-.79.13-.5-.22-.3-.06-.08.14-.45.34-.14.34-.54-.48.28-.57-.17-.28.12-.42.2-.03-.06-.37-.31-.23-.31-.02-.46.45-.17-.28-.82-.17-.2-.17-.14.2-.5-.15-.12.4.5.37.15.22-.31.65-.34.06-.28.23-.12.45-.14.14-.28-.03-.28.37-.46.54-.28.17-.11-.31-.2-.2-.34-.8-.63-.22-.33.2-.46.34-.11-.57-.14-.22-.88.17-.14-.46-.14-.25.34-.29.28-.56-.14-.2-.65-.06-.2-.45.14-.23-.48-.28-.48.4-.31-.6-.37-.37-.26-.08.34-.45-.54-.06-.42.03-.2.4-.37.28-.73-.03-.2-.37-.7-.31-.77.57.03.6-.17.39.1.22.07.51-.09.17-.31.03-.54-.45-.37.28-.22-.08-.32-.4-.36.09.14.62-.2.34-.2.11-.4.62-.1-.45-.3.09-.1-.2-.4.05-.31-.5-.37-.06-.23.11-.22.37-.23-.28-.28-.09-.63.03-.1.14-.38-.17.2-.17-.4-.34.09-.48.28-.17-.11-.54.37-.14.03-.54-.37.26-.26-.14-.14-.32.14-.36-.17-.68.17-.51-.79-.12.37-.93.03-.31-.06-.4.17-.88v-.73l.06-.12-.34-1.04-.06-.4.06-.31-.06-.43.11-.25v-1l.12-.5-.17-.26.05-.25-.11-.34-.03-.62-.08-.31.28-.51.14-.51-.06-.6.09-.23.06-.53.05-1.42-.05-.74.1-.48-.25-.28-.14-.9-.03-.52.26-.48.06-.34.17-.2-.06-.45.2-.34.03-.28.14-.14.37-.14.22-.29.68-.14.54-.22.23-.46.3-.2.74-.14.34-.17.2-.5.43-.26.56.03.23.08.45.09.31-.12.06-.25 1.05.17.42.28.29-.06.3.12.2-.17.43.2.28-.26h.34l.46-.25.22.05.09-.2.2-.05.22.17.34-.14.12-.17.05.36-.08.2-.12 1.1.12.1.4-.15.16.09.29-.03.28.28.06.37-.15.7-.45.12-.17-.03-.28.26-.34.02-.31.49-.34.2-.4.48.06.76.45.08.03.37Zm7.03 20.53.2-.09.16-.37-.48-.4-.22.23-.03.4Z" data-originalStrokeWidth="0.1049640112280169" pointer-events="auto" style="stroke: rgb(0, 0, 0); fill: rgb(209, 219, 221); pointer-events: auto; stroke-width: 0.104964; filter: none;"></path><path id="ES63" fill="#d1dbdd" stroke="#000" stroke-miterlimit="4.13" stroke-width="0.1049640112280169" d="M302.9 687.36a.77.77 0 0 1-.77.77.77.77 0 0 1-.77-.77.77.77 0 0 1 .77-.77.77.77 0 0 1 .77.77Z" color="#000" overflow="visible" paint-order="stroke fill markers" data-originalStrokeWidth="0.1049640112280169" style="stroke: rgb(0, 0, 0); stroke-width: 0.104964; filter: none;"></path><path id="PT1D" d="m262.04 600.9-.26.35-.08.37-.88 1.47.08.3-.08.21-1.08 1.03-.65.3-.63.42-.5.6-.85.48-1.16.4-.25.06-.29-.26-.25-.06-.03.32.4.2-.03.5.14.25v.8l-.26.57-.02.34-.55.93-.7.82-.02.11-.6.65-.03.4.45-.06.14.24.37.1-.1.23.24.34-.02.31.22.06.43-.12.36.15.26.36.45-.14.1.37-.15.6-.4.02v.26l.28-.06.4.2.25-.03-.08.43.53.05.2.37.23.08.28-.14-.05-.3-.14-.26.25-.12.28.32.34-.06.23.08.14-.3-.1-.66.21-.08.23.08.05.26.2.05.2-.17.3.14.21.26.23-.28.31.28.36.03v-.43l.4.17.23.3-.34.3-.14.31-.23.14.34.25-.56.15-.2.42-.37.28-.1.34-.36.26-.3.37-.43.28.28.62.07.85v.17l.5.28.8-.16.33.5.28.2.6-.08.28-.6.74-.85.2-.14.11.28.34.37.25.14.3-.34.3-.1v.27l-.1.6-.18.2.33.36.2-.02.37.25.88-.65.37.34.37-.14.25-.35.32-.1.1.28.46-.23.14-.25.28.28.28.11.3-.28h.3l.17.28.31.26-.08.22.25.34.4-.14.25.46.03.28.31-.06-.08.37.42.28.12-.25.3-.28-.28-.34-.22.14-.06-.4-.23-.28.08-.2.4-.23-.22-.28-.2.03-.23-.26-.62-.48-.17-.2.54-.48.42-.87.1-.29h-.3l-.17-.3.03-.77-.28-.22.08-.4-.67-.57.02-.2.38-.22.5-.6.77-.2.25.03.71-.45.22-.03.2-.26.4-.25.05-.4.34-.22.3.06.02.2.45.1.14-.25.45-.28.23-.34.23-.14.05-.43.43.03.34-.25.22.08.23-.25.28-.17-.03-.29-.22-.17-.37-.48-.1-.5.16-.4.34-.28.34-.4.05-.23.35-.1.5.33.06.14.42.37.26.42.2-.06.28-.36.14-.4.23-.08-.06-.4-.2-.26-.25-.68-.03-.25-.37-.2-.03-.3-.22-.24-.2.06-.42-.1.2-.44.1-1.04-.5.08-.2-.3-.4-.12.08-.1-.56.18-.34.24-.3.17-.67-.3-.3-.36v-.28l.2-.5-.05-.27-.24-.52-.2-.36-.34-.14-.33-.25-.09-.06-.03.2-.3.17.01.2-.3.05-.4-.3.06.36-.12.2-.48.02-.33.23-.2-.23-.4.03-.2.22-.37.1.14-.4-.08-.43.08-.53-.06-.77-.5.34-.08-.25-.6.45-.74.2-.22-.26-.34-.1-.6.14-.17.1-.08.35.11.5-.17.3.45.27-.3.71-.88.25.08.57-.1.68.13.31-.28.14-.17.31-.34.17-.26-.4-.2.15-.03.36.1.6-.49-.03-.6-.28-.65.03-.3-.15-.6.07.28-.66.2-.22.03-.4.48-.46-.17-.33-.34.1-.23-.9v-.28l.4-.14.06-.57-.32-.25.03-.23-.28-.4-.03-.3-.37-.04z" style="opacity: 1; fill: rgb(209, 219, 221); fill-opacity: 1; stroke: rgb(0, 0, 0); stroke-width: 0.104964; stroke-dasharray: none; font-variation-settings: normal; vector-effect: none; stroke-linecap: butt; stroke-linejoin: miter; stroke-miterlimit: 4; stroke-dashoffset: 0; stroke-opacity: 1; stop-color: rgb(0, 0, 0); stop-opacity: 1; pointer-events: auto;" data-originalStrokeWidth="0.1049640112280169" stroke="#000" fill="#d1dbdd" pointer-events="auto" stroke-width="0.1049640112280169"></path></svg></g><svg id="legend-svg" width="100%" height="100%" style="overflow:visible;" class="ui-draggable ui-draggable-handle" x="65.12866666666666" y="50.428666666666665"><g id="legend-g-svg" fill="#000" transform="translate(0,0) scale(0.6645782312925169)" style="font-family: Helvetica; font-weight: 400; font-style: normal;"><rect id="legend-bg-rect-svg" x="0" y="0" rx="2.4" ry="2.4" width="120" height="20" fill="#000000" stroke="#00000000" fill-opacity="0"></rect></g></svg><text id="credit-text-svg" font-family="Century Gothic,Segoe UI,Lucida Grande" font-size="7.5" font-weight="bold" fill="#000000"><tspan id="credit-tspan-svg" x="854.5115887451171" y="747.4581343460083" dy="0">Created with mapchart.net</tspan></text></svg>